<svg width="280" height="200" viewBox="0 0 280 200" fill="none" xmlns="http://www.w3.org/2000/svg">
<path d="M0 8C0 3.58173 3.58172 0 8 0H272C276.418 0 280 3.58172 280 8V191.087C280 195.506 276.418 199.087 272 199.087H8C3.58172 199.087 0 195.506 0 191.087V8Z" fill="white"/>
<mask id="mask0" mask-type="alpha" maskUnits="userSpaceOnUse" x="8" y="8" width="264" height="183">
<rect x="8.51758" y="8.51709" width="262.966" height="182.053" fill="#C4C4C4"/>
</mask>
<g mask="url(#mask0)">
<g clip-path="url(#clip0)">
<path d="M271.483 8.51709H8.51758V190.621H271.483V8.51709Z" fill="white"/>
<path d="M271.483 -3.31641H8.51758V203.222H271.483V-3.31641Z" fill="#CBD5E0"/>
<path d="M37.0311 90.2012L166.921 165.193C173.271 168.86 183.568 168.86 189.918 165.193L243.58 134.212C249.93 130.546 249.93 124.601 243.58 120.935L113.688 45.9422C107.338 42.2758 97.0407 42.2758 90.6908 45.9422L37.0311 76.9228C30.6797 80.5892 30.6797 86.5348 37.0311 90.2012Z" fill="#A0AEC0"/>
<path d="M113.688 38.1085C110.911 36.5047 107.377 35.6016 103.748 35.4018C99.0839 35.144 94.2631 36.0471 90.69 38.1085L35.6412 69.8925C29.4451 73.4698 29.4451 82.4133 35.6412 85.9903L166.921 161.785C173.27 165.451 183.568 165.451 189.918 161.785L244.969 130.001C251.165 126.423 251.165 117.48 244.969 113.903L113.688 38.1085Z" fill="url(#paint0_linear)"/>
<path d="M178.419 164.863C174.194 164.863 169.968 163.934 166.752 162.076L35.4728 86.2838C32.457 84.5423 30.6562 81.4242 30.6562 77.9425C30.6562 74.4608 32.457 71.3426 35.4728 69.6012L90.5225 37.8172C94.0219 35.7963 98.8506 34.7933 103.767 35.066C107.564 35.2766 111.148 36.2526 113.857 37.8172L245.137 113.612C248.153 115.353 249.952 118.471 249.952 121.952C249.952 125.434 248.151 128.554 245.137 130.294L190.085 162.078C186.87 163.934 182.645 164.863 178.419 164.863ZM102.178 35.6965C97.9382 35.6965 93.8812 36.6562 90.8604 38.4017L35.8102 70.1857C33.0051 71.8043 31.3312 74.7041 31.3312 77.9425C31.3312 81.1809 33.0051 84.0808 35.8102 85.6993L167.09 161.493C173.337 165.101 183.502 165.101 189.749 161.493L244.801 129.709C247.604 128.091 249.28 125.19 249.278 121.952C249.278 118.714 247.604 115.815 244.801 114.196L113.52 38.4017C110.9 36.8898 107.424 35.9435 103.729 35.7397C103.211 35.7099 102.693 35.6965 102.178 35.6965Z" fill="black"/>
<path d="M40.8633 80.1544C36.6367 77.7141 36.6367 73.7438 40.8633 71.3032L49.4867 66.3246C52.6617 68.1578 57.8103 68.1578 60.9853 66.3246L85.8993 51.9411C89.0746 50.1079 89.0746 47.1354 85.8993 45.3022L94.5226 40.3237C98.7498 37.883 105.628 37.883 109.854 40.3237L239.744 115.316C243.971 117.757 243.971 121.727 239.744 124.168L186.083 155.148C181.856 157.589 174.978 157.589 170.752 155.148L40.8633 80.1544Z" fill="black"/>
<path d="M182.253 115.314L172.671 109.782C169.496 107.948 164.347 107.948 161.172 109.782C157.997 111.615 157.997 114.588 161.172 116.421L170.754 121.953C173.929 123.786 179.077 123.786 182.253 121.953C185.427 120.12 185.427 117.147 182.253 115.314ZM180.336 116.421C182.45 117.641 182.45 119.627 180.336 120.847C178.221 122.068 174.783 122.068 172.67 120.847L163.088 115.315C160.973 114.095 160.973 112.109 163.088 110.889C165.202 109.668 168.64 109.668 170.754 110.889L180.336 116.421Z" fill="#7B8FDD"/>
<path d="M197.585 126.379C198.113 126.074 198.113 125.579 197.585 125.272C197.056 124.967 196.197 124.967 195.668 125.272L192.794 126.931L186.997 123.585C191.358 120.511 191.055 115.97 186.087 113.101C185.558 112.796 184.699 112.796 184.17 113.101C183.641 113.406 183.641 113.902 184.17 114.208C188.403 116.653 188.403 120.614 184.17 123.059C179.937 125.504 173.072 125.504 168.839 123.059C168.31 122.754 167.452 122.754 166.922 123.059C166.393 123.364 166.393 123.86 166.922 124.166C171.891 127.035 179.757 127.21 185.08 124.692L190.877 128.038L188.003 129.697C187.474 130.002 187.474 130.497 188.003 130.804C188.532 131.109 189.39 131.109 189.919 130.804L197.585 126.379Z" fill="#7B8FDD"/>
<mask id="mask1" mask-type="alpha" maskUnits="userSpaceOnUse" x="37" y="38" width="97" height="96">
<path d="M40.8633 71.3035L49.488 66.3249C52.663 68.1581 57.8116 68.1581 60.9867 66.3249L67.1991 62.7382V95.3608L40.8633 80.1548C36.6367 77.7145 36.6367 73.7428 40.8633 71.3035ZM85.8993 51.9401L81.9509 54.2202V103.877L89.3271 108.136V43.3222L85.898 45.3012C89.0747 47.1344 89.0747 50.1069 85.8993 51.9401ZM104.08 116.653L133.586 133.687V54.0231L109.856 40.3227C108.224 39.3804 106.197 38.804 104.08 38.5894V116.653Z" fill="url(#paint1_linear)"/>
</mask>
<g mask="url(#mask1)">
<path d="M40.8633 71.3035L49.488 66.3249C52.663 68.1581 57.8116 68.1581 60.9867 66.3249L67.1991 62.7382V95.3608L40.8633 80.1548C36.6367 77.7145 36.6367 73.7428 40.8633 71.3035ZM85.8993 51.9401L81.9509 54.2202V103.877L89.3271 108.136V43.3222L85.898 45.3012C89.0747 47.1344 89.0747 50.1069 85.8993 51.9401ZM104.08 116.653L133.586 133.687V54.0231L109.856 40.3227C108.224 39.3804 106.197 38.804 104.08 38.5894V116.653Z" fill="#2D3748"/>
</g>
<mask id="mask2" mask-type="alpha" maskUnits="userSpaceOnUse" x="37" y="38" width="97" height="96">
<path d="M40.8633 71.3035L49.488 66.3249C52.663 68.1581 57.8116 68.1581 60.9867 66.3249L67.1991 62.7382V95.3608L40.8633 80.1548C36.6367 77.7145 36.6367 73.7428 40.8633 71.3035ZM85.8993 51.9401L81.9509 54.2202V103.877L89.3271 108.136V43.3222L85.898 45.3012C89.0747 47.1344 89.0747 50.1069 85.8993 51.9401ZM104.08 116.653L133.586 133.687V54.0231L109.856 40.3227C108.224 39.3804 106.197 38.804 104.08 38.5894V116.653Z" fill="url(#paint2_linear)"/>
</mask>
<g mask="url(#mask2)">
<path d="M40.8653 71.303L49.4899 66.3245C52.665 68.1577 57.8136 68.1577 60.9886 66.3245L67.201 62.7377V95.3603L40.8653 80.1543C36.6387 77.714 36.6387 73.7423 40.8653 71.303ZM85.9013 51.9396L81.9529 54.2197V103.876L89.3291 108.136V43.3217L85.9 45.3007C89.0766 47.1339 89.0766 50.1064 85.9013 51.9396ZM104.082 116.653L133.588 133.687V54.0226L109.857 40.3222C108.226 39.3799 106.199 38.8035 104.082 38.5889V116.653Z" fill="url(#paint3_linear)"/>
<path d="M178.419 157.31C175.582 157.31 172.744 156.686 170.585 155.439L40.6958 80.4463C38.5426 79.2031 37.3574 77.5274 37.3574 75.7281C37.3574 73.9287 38.5426 72.2534 40.6958 71.0101L49.3191 66.0316C49.423 65.9708 49.5527 65.9708 49.6566 66.0316C52.733 67.8081 57.74 67.8081 60.8178 66.0316L85.7321 51.6481C87.1587 50.8247 87.9443 49.7488 87.9443 48.6216C87.9443 47.4944 87.1587 46.4185 85.7321 45.5951C85.6283 45.5343 85.5632 45.4236 85.5632 45.3021C85.5632 45.1806 85.6283 45.0699 85.7321 45.0092L94.3555 40.0306C98.6753 37.536 105.704 37.536 110.024 40.0306L239.914 115.023C242.067 116.266 243.253 117.942 243.253 119.741C243.253 121.541 242.067 123.216 239.914 124.459L186.253 155.44C184.094 156.686 181.257 157.31 178.419 157.31ZM49.4905 66.7119L41.0332 71.5947C39.0975 72.7124 38.0323 74.1798 38.0323 75.7281C38.0323 77.2763 39.0988 78.7436 41.0332 79.8619L170.923 154.854C175.057 157.241 181.784 157.241 185.917 154.854L239.578 123.873C241.514 122.756 242.579 121.288 242.579 119.74C242.579 118.192 241.512 116.724 239.578 115.606L109.688 40.6138C105.555 38.2272 98.8278 38.2272 94.694 40.6138L86.5552 45.3129C87.8918 46.2241 88.6208 47.3824 88.6208 48.6202C88.6208 49.9999 87.7149 51.2823 86.0707 52.2313L61.1552 66.6162C57.9492 68.4669 52.7654 68.4993 49.4905 66.7119Z" fill="black"/>
</g>
<g style="mix-blend-mode:multiply">
<g style="mix-blend-mode:multiply">
<g style="mix-blend-mode:multiply" opacity="0.4">
<path d="M71.549 54.7425C71.0198 54.4374 70.1613 54.4374 69.6321 54.7425L61.9672 59.1689C61.438 59.474 61.438 59.9694 61.9672 60.2759C62.4964 60.5809 63.3549 60.5809 63.8841 60.2759L71.5503 55.8495C72.0781 55.543 72.0781 55.0476 71.549 54.7425Z" fill="#7B8FDD"/>
</g>
<g style="mix-blend-mode:multiply" opacity="0.4">
<path d="M75.3818 52.5301C74.8533 52.225 73.9944 52.225 73.4653 52.5301C72.9361 52.8352 72.9361 53.3306 73.4653 53.637C73.9944 53.9434 74.8533 53.9421 75.3818 53.637C75.911 53.3319 75.911 52.8352 75.3818 52.5301Z" fill="#7B8FDD"/>
</g>
</g>
</g>
<path d="M138.335 173.546L131.145 164.764L129.484 163.806L127.135 165.163L125.475 168.039V170.751L127.135 171.711L138.335 173.546Z" fill="white"/>
<path d="M138.335 173.883C138.317 173.883 138.299 173.881 138.281 173.879L127.081 172.043C127.04 172.036 127.002 172.022 126.966 172.002L125.306 171.044C125.202 170.983 125.137 170.872 125.137 170.751V168.039C125.137 167.979 125.153 167.921 125.181 167.87L126.842 164.993C126.872 164.942 126.914 164.899 126.966 164.869L129.315 163.513C129.418 163.452 129.549 163.452 129.652 163.513L131.312 164.471C131.348 164.492 131.379 164.518 131.404 164.549L138.594 173.33C138.683 173.438 138.695 173.591 138.626 173.712C138.566 173.821 138.454 173.883 138.335 173.883ZM127.25 171.386L137.506 173.067L130.921 165.025L129.482 164.194L127.38 165.408L125.811 168.128V170.555L127.25 171.386Z" fill="black"/>
<path d="M37.2053 111.884C37.991 111.43 38.701 111.389 39.214 111.688L44.6798 114.844C45.1955 115.14 45.5155 115.775 45.5155 116.681C45.5155 118.489 44.2465 120.689 42.6806 121.592C41.895 122.046 41.1849 122.086 40.6719 121.788L35.2047 118.632C34.689 118.336 34.3691 117.7 34.3691 116.794C34.3691 114.986 35.6381 112.788 37.2053 111.884Z" fill="#D1AAD7"/>
<path d="M41.4126 122.319C41.0819 122.319 40.7742 122.238 40.5001 122.079L35.0356 118.924C34.3876 118.554 34.0312 117.798 34.0312 116.794C34.0312 114.881 35.3785 112.547 37.0362 111.59C37.9042 111.09 38.7384 111.02 39.3837 111.395L44.8482 114.551C45.4949 114.921 45.8512 115.677 45.8512 116.681C45.8512 118.594 44.504 120.928 42.8476 121.885C42.3481 122.173 41.8595 122.319 41.4126 122.319ZM38.4685 111.834C38.1404 111.834 37.7679 111.948 37.3737 112.177C35.9023 113.024 34.7062 115.096 34.7062 116.794C34.7062 117.545 34.9424 118.093 35.3717 118.339L40.8389 121.495C41.2668 121.745 41.8608 121.674 42.5101 121.299C43.9802 120.452 45.1763 118.379 45.1763 116.681C45.1763 115.931 44.94 115.382 44.5107 115.137L39.0449 111.979C38.8761 111.882 38.6817 111.834 38.4685 111.834ZM37.2049 111.883H37.2063H37.2049Z" fill="black"/>
<path d="M42.6792 121.592C41.8936 122.046 41.1836 122.087 40.6706 121.788L35.2047 118.632C34.689 118.336 34.3691 117.7 34.3691 116.794C34.3691 116.392 34.4407 115.97 34.5554 115.547L43.6661 120.807C43.3583 121.118 43.0275 121.391 42.6792 121.592Z" fill="#C88BC4"/>
<path d="M41.4126 122.319C41.0819 122.319 40.7742 122.239 40.5001 122.079L35.0356 118.925C34.3876 118.554 34.0312 117.798 34.0312 116.795C34.0312 116.391 34.0974 115.941 34.2297 115.458C34.2567 115.357 34.3296 115.275 34.4268 115.236C34.524 115.196 34.6333 115.203 34.7238 115.256L43.8344 120.515C43.9249 120.567 43.9869 120.659 44.0005 120.762C44.014 120.865 43.9789 120.97 43.9059 121.044C43.5523 121.4 43.1973 121.683 42.8476 121.884C42.3481 122.173 41.8595 122.319 41.4126 122.319ZM34.7804 116.067C34.7319 116.328 34.7062 116.57 34.7062 116.795C34.7062 117.545 34.9424 118.094 35.3717 118.339L40.8389 121.495C41.2668 121.745 41.8608 121.675 42.5101 121.299C42.7031 121.187 42.9029 121.044 43.1028 120.871L34.7804 116.067ZM42.6789 121.592H42.6802H42.6789Z" fill="black"/>
<path d="M42.8567 123.051C43.3697 123.35 44.0798 123.309 44.8655 122.855C46.4314 121.951 47.7003 119.752 47.7003 117.945C47.7003 117.037 47.3803 116.403 46.8647 116.107L43.5871 114.213C43.0741 113.915 42.364 113.955 41.5784 114.409C40.0124 115.314 38.7422 117.513 38.7422 119.32C38.7422 120.227 39.0621 120.862 39.5778 121.157L42.8567 123.051Z" fill="white"/>
<path d="M43.5989 123.582C43.2694 123.582 42.9617 123.502 42.6876 123.343L39.4086 121.45C38.7621 121.081 38.4043 120.324 38.4043 119.32C38.4043 117.407 39.7515 115.074 41.4093 114.116C42.2773 113.615 43.1115 113.547 43.7568 113.921L47.0344 115.814C47.681 116.185 48.0387 116.942 48.0387 117.945C48.0387 119.858 46.6915 122.192 45.0352 123.149C44.5343 123.436 44.0456 123.582 43.5989 123.582ZM42.8415 114.36C42.5135 114.36 42.1409 114.474 41.7467 114.702C40.2767 115.55 39.0793 117.624 39.0793 119.32C39.0793 120.071 39.3155 120.619 39.7448 120.865L43.0251 122.759C43.0251 122.759 43.0251 122.759 43.0264 122.759C43.4544 123.007 44.047 122.938 44.6963 122.563C46.1664 121.714 47.3624 119.642 47.3624 117.944C47.3624 117.193 47.1262 116.645 46.6969 116.4L43.4166 114.505C43.2492 114.408 43.0548 114.36 42.8415 114.36Z" fill="black"/>
<path d="M44.8655 122.856C44.0798 123.31 43.3697 123.35 42.8567 123.052L39.5778 121.158C39.0621 120.862 38.7422 120.226 38.7422 119.32C38.7422 118.918 38.8137 118.495 38.9285 118.073L45.8523 122.07C45.5445 122.381 45.2137 122.655 44.8655 122.856Z" fill="white"/>
<path d="M43.5989 123.582C43.2681 123.582 42.9603 123.502 42.6863 123.343L39.4086 121.45C38.7621 121.081 38.4043 120.323 38.4043 119.32C38.4043 118.916 38.4704 118.467 38.6028 117.984C38.6297 117.882 38.7026 117.8 38.7999 117.761C38.897 117.722 39.0064 117.728 39.0968 117.781L46.0206 121.778C46.111 121.831 46.1718 121.923 46.1866 122.025C46.2001 122.129 46.165 122.233 46.0922 122.307C45.7385 122.664 45.3834 122.946 45.0338 123.147C44.5344 123.436 44.0456 123.582 43.5989 123.582ZM39.1549 118.592C39.1049 118.853 39.0806 119.097 39.0806 119.32C39.0806 120.071 39.3169 120.618 39.7461 120.864L43.0264 122.758C43.4544 123.008 44.0483 122.938 44.6977 122.562C44.8921 122.451 45.0905 122.307 45.2903 122.134L39.1549 118.592Z" fill="black"/>
<path d="M43.7661 115.673H43.7675C44.5504 115.22 45.2591 115.178 45.7721 115.474L129.485 163.805L127.136 165.162L42.7793 116.458C43.0871 116.148 43.4165 115.874 43.7661 115.673Z" fill="#86BFF2"/>
<path d="M127.136 165.5C127.078 165.5 127.02 165.485 126.967 165.456L42.6103 116.752C42.5198 116.699 42.4591 116.607 42.4442 116.505C42.4308 116.401 42.4658 116.297 42.5387 116.223C42.8911 115.866 43.2475 115.584 43.5971 115.382C43.5998 115.381 43.6025 115.38 43.6052 115.377C44.4691 114.881 45.2979 114.812 45.9392 115.183L129.654 163.514C129.758 163.575 129.823 163.686 129.823 163.808C129.823 163.928 129.758 164.04 129.654 164.1L127.305 165.457C127.252 165.485 127.194 165.5 127.136 165.5ZM43.3406 116.393L127.136 164.773L128.81 163.806L45.6017 115.766C45.1751 115.52 44.5825 115.591 43.9345 115.964C43.9318 115.965 43.9291 115.967 43.9265 115.969C43.7361 116.081 43.539 116.223 43.3406 116.393Z" fill="black"/>
<path d="M41.7611 117.79C42.0459 117.297 42.3942 116.846 42.7789 116.458L127.136 165.162L125.476 168.039L41.1172 119.335C41.2603 118.809 41.4763 118.282 41.7611 117.79Z" fill="#7B8FDD"/>
<path d="M125.474 168.376C125.417 168.376 125.359 168.362 125.305 168.332L40.9479 119.628C40.8156 119.551 40.7508 119.394 40.7913 119.247C40.9452 118.68 41.172 118.136 41.4635 117.628C41.4649 117.626 41.4662 117.623 41.4676 117.621C41.7619 117.112 42.1209 116.64 42.5381 116.221C42.6461 116.112 42.8135 116.089 42.9471 116.166L127.304 164.871C127.381 164.915 127.438 164.989 127.462 165.076C127.485 165.162 127.473 165.254 127.428 165.332L125.768 168.209C125.705 168.316 125.591 168.376 125.474 168.376ZM41.5148 119.175L125.351 167.577L126.674 165.285L42.8391 116.884C42.5408 117.212 42.2775 117.569 42.0561 117.951C42.0548 117.954 42.0534 117.957 42.0521 117.958C41.8307 118.342 41.6498 118.752 41.5148 119.175ZM41.7606 117.79H41.7619H41.7606Z" fill="black"/>
<path d="M41.7599 122.42C41.247 122.123 40.9297 121.488 40.9297 120.585V120.584C40.9297 120.181 41.0012 119.759 41.116 119.336L125.474 168.039V170.751L41.7599 122.42Z" fill="#6079DA"/>
<path d="M125.476 171.088C125.418 171.088 125.36 171.074 125.307 171.044L41.5927 122.712C40.9488 122.34 40.5938 121.586 40.5938 120.585C40.5938 120.18 40.6613 119.73 40.7922 119.247C40.8192 119.146 40.8921 119.064 40.9893 119.024C41.0865 118.984 41.1958 118.992 41.2863 119.045L125.644 167.746C125.748 167.807 125.813 167.918 125.813 168.039V170.751C125.813 170.871 125.748 170.983 125.644 171.044C125.592 171.074 125.534 171.088 125.476 171.088ZM41.9302 122.128L125.138 170.167V168.234L41.343 119.855C41.293 120.116 41.2687 120.358 41.2687 120.582C41.2687 121.333 41.5036 121.881 41.9302 122.128Z" fill="black"/>
<path d="M134.94 170.404C135.299 170.196 135.614 170.229 135.796 170.446L138.334 173.546L134.385 172.899C134.103 172.852 133.916 172.595 133.916 172.178C133.917 171.525 134.375 170.731 134.94 170.404Z" fill="black"/>
<path d="M138.336 173.883C138.319 173.883 138.3 173.882 138.283 173.879L134.334 173.232C133.87 173.154 133.582 172.75 133.582 172.178C133.582 171.406 134.106 170.499 134.776 170.113C135.267 169.829 135.758 169.874 136.059 170.231L138.6 173.334C138.689 173.442 138.701 173.595 138.631 173.715C138.567 173.821 138.455 173.883 138.336 173.883ZM135.397 170.601C135.291 170.601 135.171 170.661 135.111 170.697C134.647 170.965 134.255 171.643 134.255 172.178C134.255 172.285 134.274 172.537 134.443 172.567L137.508 173.069L135.536 170.661C135.5 170.618 135.45 170.601 135.397 170.601Z" fill="black"/>
<path d="M115.763 140.809C124.803 135.59 132.13 122.898 132.13 112.46C132.13 107.237 130.295 103.568 127.33 101.861L124.643 100.309C121.681 98.5947 117.587 98.8406 113.063 101.451L53.5697 135.802C44.5305 141.02 37.2031 153.712 37.2031 164.149C37.2031 169.372 39.0376 173.04 42.0034 174.748L44.6898 176.3C47.0495 177.666 50.1287 177.786 53.5697 176.459V176.717L115.763 140.809Z" fill="#CBD5E0"/>
<path d="M37.2031 164.148C37.2031 169.371 39.0376 173.039 42.0034 174.748L44.6898 176.299C41.7321 174.589 39.903 170.922 39.903 165.708" fill="#A0AEC0"/>
<path d="M48.9511 177.735C47.3299 177.735 45.8368 177.355 44.5207 176.592L41.8343 175.041C38.6296 173.196 36.8652 169.327 36.8652 164.149C36.8652 153.621 44.2831 140.772 53.4005 135.508L112.895 101.16C117.379 98.5702 121.611 98.1653 124.811 100.018L127.498 101.569C130.703 103.414 132.467 107.283 132.467 112.461C132.467 122.989 125.049 135.838 115.932 141.102L53.738 177.008C53.634 177.069 53.5045 177.069 53.4005 177.008C53.36 176.985 53.3262 176.954 53.2992 176.919C51.7792 177.463 50.3186 177.735 48.9511 177.735ZM120.371 99.5491C118.189 99.5491 115.759 100.286 113.232 101.744L53.738 136.093C44.8069 141.25 37.5402 153.836 37.5402 164.149C37.5402 169.075 39.1844 172.736 42.1718 174.456L44.8581 176.006C47.1976 177.361 50.1687 177.407 53.4477 176.143C53.5517 176.102 53.6678 176.116 53.7595 176.179C53.769 176.186 53.7771 176.192 53.7866 176.2L115.593 140.515L115.761 140.808L115.593 140.515C124.524 135.358 131.791 122.774 131.791 112.46C131.791 107.534 130.145 103.873 127.159 102.153L124.473 100.602C123.258 99.8989 121.873 99.5491 120.371 99.5491Z" fill="black"/>
<path d="M115.763 103.011L56.2689 137.36C47.2298 142.578 39.9023 155.27 39.9023 165.708C39.9023 176.146 47.2298 180.376 56.2689 175.158V185.957L65.6212 169.758L115.761 140.809C124.801 135.59 132.128 122.898 132.128 112.46C132.128 102.023 124.802 97.7921 115.763 103.011Z" fill="white"/>
<path d="M56.2685 186.294C56.2401 186.294 56.2104 186.29 56.1807 186.283C56.0336 186.244 55.931 186.111 55.931 185.956V175.733C51.6382 178.065 47.606 178.374 44.5268 176.596C41.3275 174.748 39.5645 170.882 39.5645 165.708C39.5645 155.179 46.9823 142.331 56.0997 137.068L115.594 102.718C120.074 100.132 124.305 99.7245 127.504 101.573C130.705 103.421 132.466 107.287 132.466 112.461C132.466 122.989 125.049 135.838 115.931 141.101L65.8691 170.005L56.5614 186.125C56.4993 186.232 56.3873 186.294 56.2685 186.294ZM56.2685 174.82C56.3265 174.82 56.3845 174.835 56.4372 174.864C56.5411 174.925 56.6059 175.036 56.6059 175.157V184.697L65.3292 169.589C65.3589 169.537 65.4021 169.494 65.4534 169.464L115.594 140.515C124.525 135.358 131.792 122.773 131.792 112.46C131.792 107.538 130.149 103.878 127.167 102.156C124.185 100.433 120.194 100.841 115.931 103.302L115.763 103.009L115.931 103.302L56.4372 137.652C47.5061 142.809 40.2394 155.394 40.2394 165.708C40.2394 170.629 41.8823 174.289 44.8643 176.012C47.8463 177.734 51.8367 177.326 56.0997 174.866C56.1524 174.835 56.2104 174.82 56.2685 174.82Z" fill="black"/>
<path d="M56.2682 185.958V175.158C55.3489 175.688 54.4471 176.121 53.5684 176.459V184.398L56.2682 185.958Z" fill="#A0AEC0"/>
<path d="M56.2697 186.295C56.2117 186.295 56.1536 186.28 56.101 186.25L53.4012 184.691C53.2972 184.63 53.2324 184.52 53.2324 184.398V176.459C53.2324 176.32 53.3188 176.194 53.4484 176.144C54.3231 175.807 55.2154 175.376 56.101 174.866C56.205 174.805 56.3346 174.805 56.4385 174.866C56.5424 174.927 56.6072 175.038 56.6072 175.159V185.959C56.6072 186.078 56.5424 186.191 56.4385 186.251C56.3872 186.28 56.3292 186.295 56.2697 186.295ZM53.9074 184.203L55.9323 185.372V175.733C55.2559 176.099 54.5783 176.42 53.9074 176.689V184.203Z" fill="black"/>
<path opacity="0.5" d="M80.8788 141.173L55.9023 155.594V147.346L80.8788 132.925V141.173Z" fill="#D1AAD7"/>
<path opacity="0.5" d="M80.8789 141.173L103.819 127.929V119.681L80.8789 132.925V141.173Z" fill="#7B8FDD"/>
<path opacity="0.5" d="M116.207 120.776L103.818 127.929V119.681L116.207 112.527V120.776Z" fill="#86BFF2"/>
<path d="M56.8125 147.871L57.4672 147.493L58.6362 149.356L58.666 149.34L59.8404 146.123L60.4721 145.759V150.47L59.9929 150.747V146.778L59.9632 146.794L59.619 147.782L58.643 150.398L57.667 148.909L57.3227 148.319L57.2931 148.336V152.305L56.8138 152.581V147.871H56.8125Z" fill="black"/>
<path opacity="0.5" d="M81.3699 151.689L55.9023 166.394V158.145L81.3699 143.441V151.689Z" fill="#86BFF2"/>
<path d="M61.291 148.258C61.291 147.151 61.8458 146.114 62.6531 145.648C63.4604 145.183 64.0151 145.577 64.0151 146.685C64.0151 147.792 63.4604 148.827 62.6531 149.295C61.8458 149.759 61.291 149.364 61.291 148.258ZM63.5116 147.225V146.726C63.5116 145.99 63.1552 145.837 62.6517 146.127C62.1495 146.418 61.7918 146.982 61.7918 147.718V148.217C61.7918 148.953 62.1482 149.105 62.6517 148.815C63.1552 148.524 63.5116 147.961 63.5116 147.225Z" fill="black"/>
<path d="M65.406 147.622L64.3477 144.75L64.8148 144.48L65.3412 145.904L65.6693 146.903L65.699 146.887L66.0256 145.51L66.5629 143.471L67.0124 143.212L65.9487 147.309L65.406 147.622Z" fill="black"/>
<path d="M67.3477 144.761C67.3477 143.654 67.885 142.628 68.7044 142.156C69.5116 141.69 70.0083 142.118 70.0083 143.105V143.361L67.839 144.614V144.776C67.839 145.377 68.1724 145.636 68.734 145.312C69.1133 145.093 69.4063 144.708 69.5643 144.232L69.8977 144.316C69.7046 144.9 69.2726 145.474 68.7057 145.8C67.885 146.273 67.3477 145.868 67.3477 144.761ZM67.839 144.161V144.207L69.5048 143.246V143.173C69.5048 142.558 69.1835 142.331 68.7044 142.608C68.1954 142.901 67.839 143.553 67.839 144.161Z" fill="black"/>
<path d="M72.8236 143.34C72.5023 143.526 72.3268 143.391 72.3268 143.054V140.616L71.8301 140.903V140.43L72.1109 140.269C72.3093 140.154 72.3741 140.036 72.3741 139.8V139.152L72.7952 138.909V139.874L73.4553 139.492V139.965L72.7952 140.347V142.885L73.4095 142.53V143.002L72.8236 143.34Z" fill="black"/>
<path d="M74.2083 137.546L74.6752 137.275V139.354L74.6982 139.341C74.8441 138.864 75.1018 138.461 75.5515 138.2C76.1714 137.843 76.5626 138.102 76.5626 138.947V141.181L76.0958 141.451V139.311C76.0958 138.69 75.8618 138.508 75.4108 138.767C75.0374 138.983 74.6739 139.409 74.6739 139.854V142.27L74.207 142.54V137.546H74.2083Z" fill="black"/>
<path d="M77.3066 139.01C77.3066 137.903 77.8437 136.877 78.6629 136.405C79.4702 135.939 79.9672 136.367 79.9672 137.354V137.61L77.7977 138.863V139.025C77.7977 139.626 78.131 139.885 78.6931 139.561C79.0725 139.342 79.365 138.958 79.5228 138.481L79.8568 138.565C79.6635 139.149 79.2316 139.723 78.6642 140.05C77.8451 140.522 77.3066 140.117 77.3066 139.01ZM77.7977 138.409V138.457L79.4636 137.496V137.421C79.4636 136.807 79.1421 136.581 78.6629 136.857C78.154 137.15 77.7977 137.802 77.7977 138.409Z" fill="black"/>
<path d="M82.1172 137.974V134.491L82.5846 134.221V134.788L82.607 134.774C82.7424 134.338 82.9514 133.928 83.4202 133.656C83.8166 133.427 84.1802 133.427 84.3432 133.832L84.3557 133.825C84.4661 133.384 84.7593 132.883 85.2734 132.586C85.8875 132.232 86.255 132.505 86.255 133.349V135.583L85.7875 135.853V133.715C85.7875 133.1 85.5824 132.894 85.1275 133.157C84.7593 133.37 84.4201 133.782 84.4201 134.228V136.644L83.9533 136.914V134.774C83.9533 134.153 83.7482 133.954 83.3038 134.21C82.935 134.424 82.5846 134.842 82.5846 135.287V137.703L82.1172 137.974Z" fill="black"/>
<path d="M86.998 133.415C86.998 132.308 87.5352 131.282 88.3549 130.81C89.1616 130.344 89.6586 130.772 89.6586 131.758V132.015L87.4891 133.268V133.43C87.4891 134.03 87.8231 134.289 88.3845 133.965C88.7639 133.747 89.0564 133.362 89.2148 132.886L89.5482 132.969C89.3549 133.554 88.923 134.128 88.3563 134.454C87.5352 134.926 86.998 134.522 86.998 133.415ZM87.4878 132.814V132.862L89.1537 131.9V131.826C89.1537 131.211 88.8322 130.985 88.353 131.261C87.8441 131.555 87.4878 132.207 87.4878 132.814Z" fill="black"/>
<path d="M90.207 131.561C90.207 130.454 90.7441 129.429 91.5633 128.956C92.3706 128.49 92.8676 128.918 92.8676 129.905V130.162L90.6981 131.414V131.576C90.6981 132.177 91.0314 132.436 91.5935 132.112C91.9729 131.893 92.2654 131.509 92.4232 131.032L92.7572 131.116C92.5639 131.701 92.1319 132.274 91.5646 132.601C90.7441 133.073 90.207 132.668 90.207 131.561ZM90.6981 130.96V131.008L92.364 130.045V129.971C92.364 129.357 92.0425 129.13 91.5633 129.407C91.0544 129.703 90.6981 130.353 90.6981 130.96Z" fill="black"/>
<path d="M94.3046 130.938C93.9831 131.124 93.8076 130.989 93.8076 130.651V128.215L93.3105 128.501V128.028L93.5919 127.866C93.7898 127.752 93.8549 127.634 93.8549 127.398V126.75L94.2763 126.507V127.472L94.9363 127.09V127.563L94.2763 127.945V130.483L94.8903 130.128V130.6L94.3046 130.938Z" fill="black"/>
<path d="M95.6367 125.565V125.477C95.6367 125.295 95.7242 125.124 95.9227 125.007C96.1212 124.892 96.2086 124.963 96.2086 125.145V125.233C96.2086 125.415 96.1212 125.588 95.9227 125.703C95.7242 125.817 95.6367 125.747 95.6367 125.565ZM95.6893 126.654L96.1561 126.385V129.867L95.6893 130.137V126.654Z" fill="black"/>
<path d="M97.1504 129.294V125.811L97.6178 125.541V126.108L97.6408 126.094C97.7861 125.618 98.0445 125.214 98.4935 124.954C99.1134 124.596 99.5046 124.855 99.5046 125.7V127.934L99.0378 128.205V126.065C99.0378 125.443 98.8044 125.261 98.3535 125.52C97.9794 125.737 97.6165 126.162 97.6165 126.607V129.024L97.1504 129.294Z" fill="black"/>
<path d="M101.553 128.184C100.612 128.728 100.227 128.641 100.227 128.092C100.227 127.714 100.407 127.408 100.706 127.14V127.067C100.536 127.069 100.437 126.972 100.437 126.735C100.437 126.385 100.653 126.09 100.957 125.827V125.8C100.601 125.81 100.39 125.547 100.39 125.06C100.39 124.352 100.839 123.598 101.524 123.204C101.74 123.08 101.933 123.015 102.096 123.008V122.948C102.096 122.678 102.196 122.425 102.447 122.279L102.897 122.019V122.492L102.324 122.822V123.045C102.54 123.135 102.669 123.373 102.669 123.744C102.669 124.453 102.219 125.206 101.529 125.605C101.43 125.661 101.324 125.71 101.236 125.739C101.038 125.915 100.839 126.144 100.839 126.361C100.839 126.57 101.027 126.516 101.301 126.358L101.944 125.987C102.691 125.555 103.014 125.719 103.014 126.293C103.014 127.009 102.524 127.624 101.553 128.184ZM101.95 126.49L100.944 127.071C100.752 127.284 100.664 127.489 100.664 127.705C100.664 128.009 100.845 128.155 101.319 127.881L101.75 127.631C102.27 127.33 102.575 126.965 102.575 126.587C102.575 126.311 102.419 126.22 101.95 126.49ZM102.178 124.123V123.935C102.178 123.476 101.927 123.406 101.529 123.635C101.131 123.864 100.88 124.225 100.88 124.685V124.874C100.88 125.333 101.131 125.403 101.529 125.174C101.927 124.945 102.178 124.582 102.178 124.123Z" fill="black"/>
<path d="M104.623 121.498L105.079 121.235L105.401 122.555L105.722 123.895L105.734 123.889L106.103 122.15L106.482 120.425L106.896 120.186L107.288 121.465L107.662 122.775L107.674 122.768L107.984 121.063L108.311 119.369L108.75 119.115L107.95 123.061L107.37 123.396L106.949 121.965L106.686 121.057L106.674 121.063L106.416 122.271L105.994 124.189L105.428 124.517L104.623 121.498Z" fill="black"/>
<path d="M109.375 117.634V117.547C109.375 117.365 109.462 117.193 109.661 117.077C109.86 116.961 109.947 117.033 109.947 117.215V117.302C109.947 117.485 109.86 117.657 109.661 117.772C109.462 117.887 109.375 117.817 109.375 117.634ZM109.428 118.724L109.894 118.454V121.937L109.428 122.206V118.724Z" fill="black"/>
<path d="M111.554 120.978C111.232 121.164 111.057 121.03 111.057 120.692V118.255L110.561 118.541V118.069L110.841 117.907C111.04 117.792 111.104 117.675 111.104 117.439V116.791L111.526 116.547V117.513L112.186 117.13V117.603L111.526 117.985V120.523L112.14 120.168V120.64L111.554 120.978Z" fill="black"/>
<path d="M112.941 115.184L113.408 114.914V116.993L113.431 116.979C113.576 116.503 113.834 116.099 114.284 115.838C114.904 115.481 115.295 115.74 115.295 116.585V118.819L114.828 119.089V116.948C114.828 116.328 114.594 116.145 114.144 116.404C113.77 116.62 113.406 117.045 113.406 117.491V119.907L112.939 120.177V115.184H112.941Z" fill="black"/>
<path d="M56.8125 158.671L57.4672 158.293L58.6362 160.156L58.666 160.14L59.8404 156.923L60.4721 156.559V161.27L59.9929 161.546V157.578L59.9632 157.594L59.619 158.582L58.643 161.198L57.667 159.709L57.3227 159.119L57.2931 159.136V163.104L56.8138 163.381V158.671H56.8125Z" fill="black"/>
<path d="M63.7047 159.403C63.3605 159.603 63.22 159.44 63.1849 159.136L63.1553 159.152C63.027 159.652 62.7057 160.059 62.2845 160.302C61.6474 160.671 61.2734 160.482 61.2734 159.834C61.2734 159.179 61.6825 158.579 62.5599 158.072L63.1566 157.728V157.384C63.1566 156.891 62.9231 156.756 62.4438 157.033C62.0807 157.242 61.8418 157.583 61.6785 157.994L61.3976 157.852C61.561 157.387 61.9241 156.867 62.4668 156.554C63.1917 156.135 63.6237 156.324 63.6237 157.06V158.976L63.9679 158.777V159.249L63.7047 159.403ZM63.1553 158.708V158.134L62.5357 158.492C62.0038 158.8 61.7635 159.126 61.7635 159.464V159.606C61.7635 159.95 61.9971 160.011 62.3601 159.801C62.8218 159.536 63.1553 159.066 63.1553 158.708Z" fill="black"/>
<path d="M64.6348 158.868V155.385L65.1019 155.115V155.756L65.1316 155.74C65.2368 155.348 65.5109 154.88 66.0023 154.595L66.1832 154.491V155.031L65.9091 155.189C65.407 155.479 65.1019 155.905 65.1019 156.235V158.597L64.6348 158.868Z" fill="black"/>
<path d="M66.7266 153.055V152.968C66.7266 152.785 66.8143 152.614 67.0128 152.498C67.2112 152.382 67.299 152.453 67.299 152.636V152.723C67.299 152.905 67.2112 153.078 67.0128 153.193C66.8143 153.307 66.7266 153.239 66.7266 153.055ZM66.7792 154.146L67.2463 153.876V157.359L66.7792 157.629V154.146Z" fill="black"/>
<path d="M70.4332 155.52C70.089 155.72 69.9486 155.556 69.9135 155.252L69.8837 155.269C69.7555 155.768 69.4343 156.176 69.0131 156.418C68.3759 156.787 68.002 156.599 68.002 155.95C68.002 155.295 68.411 154.695 69.2885 154.188L69.8851 153.845V153.5C69.8851 153.008 69.6516 152.872 69.1724 153.149C68.8093 153.358 68.5703 153.7 68.4069 154.11L68.1261 153.969C68.2895 153.503 68.6527 152.983 69.1953 152.67C69.9202 152.252 70.3522 152.44 70.3522 153.176V155.093L70.6964 154.893V155.366L70.4332 155.52ZM69.8837 154.824V154.251L69.2641 154.608C68.7323 154.916 68.492 155.243 68.492 155.58V155.722C68.492 156.067 68.7255 156.127 69.0887 155.918C69.5504 155.651 69.8837 155.182 69.8837 154.824Z" fill="black"/>
<path d="M71.3633 154.983V151.5L71.8304 151.23V151.797L71.8533 151.783C71.9991 151.307 72.257 150.903 72.7064 150.643C73.3261 150.285 73.7176 150.544 73.7176 151.389V153.623L73.2505 153.894V151.754C73.2505 151.132 73.0169 150.95 72.5661 151.209C72.1922 151.426 71.829 151.851 71.829 152.296V154.713L71.3633 154.983Z" fill="black"/>
<path d="M74.6816 153.066V149.583L75.1484 149.313V149.88L75.1714 149.866C75.3174 149.39 75.5751 148.986 76.0248 148.726C76.6447 148.368 77.0359 148.627 77.0359 149.472V151.706L76.5691 151.977V149.837C76.5691 149.215 76.3351 149.033 75.8847 149.292C75.5106 149.509 75.1471 149.934 75.1471 150.379V152.796L74.6816 153.066Z" fill="black"/>
<path d="M80.1948 149.884C79.8503 150.084 79.7103 149.92 79.6748 149.616L79.6452 149.633C79.517 150.132 79.1955 150.54 78.7748 150.783C78.1371 151.151 77.7637 150.963 77.7637 150.315C77.7637 149.66 78.1726 149.059 79.0496 148.553L79.6465 148.209V147.864C79.6465 147.372 79.4131 147.237 78.9339 147.513C78.5703 147.722 78.3317 148.064 78.1686 148.474L77.8873 148.333C78.051 147.867 78.4139 147.348 78.9569 147.034C79.6814 146.616 80.1133 146.805 80.1133 147.54V149.457L80.4578 149.257V149.73L80.1948 149.884ZM79.6439 149.188V148.615L79.0239 148.973C78.4921 149.28 78.2521 149.607 78.2521 149.944V150.086C78.2521 150.431 78.4855 150.491 78.8484 150.282C79.3119 150.015 79.6439 149.547 79.6439 149.188Z" fill="black"/>
<path d="M83.1691 148.166C82.8483 148.352 82.6728 148.217 82.6728 147.88V145.443L82.1758 145.729V145.257L82.4565 145.094C82.655 144.98 82.7195 144.862 82.7195 144.626V143.978L83.1409 143.735V144.7L83.8009 144.318V144.791L83.1409 145.173V147.711L83.7549 147.356V147.828L83.1691 148.166Z" fill="black"/>
<path d="M84.3105 145.767C84.3105 144.66 84.8647 143.623 85.672 143.158C86.4794 142.692 87.0342 143.086 87.0342 144.194C87.0342 145.302 86.4794 146.337 85.672 146.804C84.8647 147.27 84.3105 146.874 84.3105 145.767ZM86.5306 144.734V144.235C86.5306 143.499 86.1743 143.346 85.6707 143.637C85.1691 143.927 84.8108 144.492 84.8108 145.227V145.726C84.8108 146.463 85.1672 146.615 85.6707 146.324C86.1743 146.033 86.5306 145.47 86.5306 144.734Z" fill="black"/>
<path opacity="0.5" d="M113.156 133.336L88.0098 147.855V139.607L113.156 125.088V133.336Z" fill="#BBDEF2"/>
<path d="M89.2026 144.683V144.183L90.3419 143.524V139.731L90.3012 139.754L89.273 141.455L88.9863 141.262L90.0678 139.469L90.833 139.027V143.238L91.8849 142.631V143.13L89.2026 144.683Z" fill="black"/>
<path d="M92.7085 142.658V142.158L93.8478 141.5V137.706L93.807 137.729L92.7788 139.43L92.4922 139.237L93.5736 137.445L94.3389 137.001V141.214L95.3907 140.606V141.106L92.7085 142.658Z" fill="black"/>
<path d="M96.1992 137.56V137.471C96.1992 137.242 96.3097 137.015 96.5555 136.873C96.8008 136.732 96.9119 136.83 96.9119 137.06V137.147C96.9119 137.377 96.8008 137.604 96.5555 137.746C96.3097 137.886 96.1992 137.789 96.1992 137.56ZM96.1992 140.333V140.246C96.1992 140.016 96.3097 139.789 96.5555 139.647C96.8008 139.506 96.9119 139.604 96.9119 139.834V139.922C96.9119 140.151 96.8008 140.377 96.5555 140.519C96.3097 140.66 96.1992 140.563 96.1992 140.333Z" fill="black"/>
<path d="M98.9349 136.351C99.4845 136.034 99.7652 135.541 99.7652 135.089V135.042C99.7652 134.549 99.4668 134.47 99.0348 134.721C98.6134 134.965 98.3623 135.34 98.1927 135.795L97.8305 135.68C98.0356 135.185 98.3919 134.587 99.0467 134.209C99.737 133.81 100.286 133.918 100.286 134.681C100.286 135.289 99.9348 135.856 99.5029 136.234V136.26C99.9421 136.109 100.363 136.244 100.363 136.953C100.363 137.763 99.808 138.644 98.9783 139.124C98.2709 139.531 97.9087 139.344 97.6562 139.083L98.0251 138.547C98.2354 138.797 98.4747 138.908 98.9724 138.621C99.545 138.291 99.85 137.798 99.85 137.245V137.191C99.85 136.637 99.5463 136.495 98.9724 136.826L98.4931 137.103V136.61L98.9349 136.351Z" fill="black"/>
<path d="M101.266 135.362C101.266 133.823 101.692 132.677 102.668 132.115C103.644 131.551 104.071 132.203 104.071 133.741C104.071 135.28 103.644 136.425 102.668 136.988C101.692 137.552 101.266 136.9 101.266 135.362ZM103.558 134.423V133.654C103.558 132.742 103.307 132.239 102.67 132.608C102.032 132.976 101.781 133.769 101.781 134.68V135.449C101.781 136.36 102.032 136.864 102.67 136.495C103.307 136.128 103.558 135.334 103.558 134.423Z" fill="black"/>
<path d="M107.111 134.342C106.766 134.542 106.626 134.379 106.591 134.075L106.561 134.091C106.433 134.591 106.112 134.998 105.691 135.242C105.054 135.61 104.68 135.421 104.68 134.773C104.68 134.118 105.089 133.518 105.966 133.012L106.563 132.667V132.323C106.563 131.83 106.329 131.695 105.85 131.972C105.487 132.181 105.248 132.522 105.085 132.933L104.804 132.791C104.967 132.326 105.331 131.806 105.873 131.493C106.598 131.074 107.03 131.263 107.03 131.999V133.916L107.374 133.716V134.188L107.111 134.342ZM106.561 133.647V133.073L105.942 133.431C105.41 133.739 105.169 134.065 105.169 134.403V134.545C105.169 134.889 105.403 134.95 105.766 134.741C106.229 134.475 106.561 134.005 106.561 133.647Z" fill="black"/>
<path d="M108.041 133.806V130.323L108.508 130.054V130.62L108.531 130.607C108.666 130.171 108.875 129.76 109.344 129.489C109.74 129.259 110.104 129.259 110.267 129.664L110.28 129.658C110.39 129.217 110.683 128.716 111.197 128.419C111.811 128.065 112.179 128.338 112.179 129.181V131.416L111.711 131.685V129.546C111.711 128.931 111.506 128.725 111.051 128.989C110.683 129.202 110.344 129.613 110.344 130.059V132.475L109.877 132.745V130.606C109.877 129.985 109.672 129.785 109.228 130.041C108.859 130.253 108.508 130.673 108.508 131.119V133.535L108.041 133.806Z" fill="black"/>
<path d="M354.63 0.355209V6.42984L224.863 81.3511C221.738 83.1544 218.933 83.2017 217.004 81.8166C217.004 81.8166 44.6069 -17.688 44.4611 -17.773C42.5631 -18.8745 41.3887 -21.2288 41.3887 -24.5779V-40.7771C41.3887 -47.4876 46.0999 -55.6466 51.91 -59.001L181.677 -133.922L354.63 -34.068V-27.9933L329.676 -13.5869L354.63 0.355209Z" fill="#CBD5E0"/>
<path d="M218.148 53.0836L219.574 49.949L44.4706 -51.147C42.5658 -47.8491 41.3887 -44.1314 41.3887 -40.7769V-24.5777C41.3887 -21.2286 42.5631 -18.8743 44.4625 -17.7727C44.6082 -17.6877 217.006 81.8168 217.006 81.8168C217.358 82.0706 217.741 82.2744 218.15 82.4308V53.0836H218.148Z" fill="#B5C2D0"/>
<path d="M218.148 53.0836L219.574 49.949L44.4706 -51.147C42.5658 -47.8491 41.3887 -44.1314 41.3887 -40.7769V-24.5777C41.3887 -21.2286 42.5631 -18.8743 44.4625 -17.7727C44.6082 -17.6877 217.006 81.8168 217.006 81.8168C217.358 82.0706 217.741 82.2744 218.15 82.4308V53.0836H218.148Z" fill="#B5C2D0"/>
<path d="M351.065 -1.63588L221.298 73.285C218.397 74.9605 216.037 73.5969 216.037 70.2477V54.0486C216.037 50.6994 218.397 46.6118 221.298 44.9365L351.065 -29.9844V-1.63588Z" fill="#EDF2F7"/>
<path d="M218.952 74.3404C218.392 74.3404 217.872 74.2083 217.41 73.9424C216.308 73.3053 215.699 71.9931 215.699 70.2476V54.0485C215.699 50.5914 218.134 46.3728 221.128 44.6436L351.401 -30.5703V-1.44291L221.466 73.5752C220.587 74.0842 219.731 74.3404 218.952 74.3404ZM350.727 -29.3999L221.466 45.2281C218.658 46.8494 216.374 50.806 216.374 54.0471V70.2463C216.374 71.7407 216.861 72.8449 217.748 73.3565C218.634 73.8681 219.835 73.7386 221.128 72.9907L350.727 -1.8317V-29.3999Z" fill="black"/>
<path d="M216.037 66.1981L351.065 -11.7603V-13.7852L216.037 64.1732V66.1981Z" fill="#E2E8F0"/>
<path d="M216.34 72.0986L351.065 -5.68561V-7.71045L216.037 70.2478C216.037 70.9565 216.145 71.5762 216.34 72.0986Z" fill="#E2E8F0"/>
<path d="M216.037 54.0486L351.065 -23.9097V-25.9346L216.34 51.8495C216.145 52.5947 216.037 53.3385 216.037 54.0486Z" fill="#E2E8F0"/>
<path d="M216.037 60.1233L351.065 -17.835V-19.8599L216.037 58.0984V60.1233Z" fill="#E2E8F0"/>
<path d="M354.628 0.355267V6.42991L224.861 81.3511C219.05 84.7053 214.34 81.9869 214.34 75.276V59.0771C214.34 52.3666 219.051 44.2076 224.861 40.853L354.628 -34.0679V-27.9932L224.861 46.9277C221.96 48.603 219.6 52.6906 219.6 56.0397V72.2389C219.6 75.5883 221.96 76.9517 224.861 75.276L354.628 0.355267Z" fill="#A0AEC0"/>
<path d="M220.164 83.13C219.104 83.13 218.123 82.8815 217.254 82.3805C215.158 81.1709 214.004 78.6484 214.004 75.2772V59.0782C214.004 52.2719 218.8 43.9658 224.694 40.5613L354.461 -34.3597C354.565 -34.4205 354.695 -34.4205 354.798 -34.3597C354.902 -34.299 354.967 -34.1883 354.967 -34.0668V-27.9921C354.967 -27.872 354.902 -27.7599 354.798 -27.6991L225.031 47.2218C222.224 48.8431 219.94 52.7997 219.94 56.0409V72.24C219.94 73.7343 220.427 74.8387 221.314 75.3501C222.199 75.8616 223.401 75.7321 224.694 74.9846L354.461 0.063427C354.565 0.00268173 354.695 0.00268173 354.798 0.063427C354.902 0.124172 354.967 0.234882 354.967 0.356373V6.43106C354.967 6.5512 354.902 6.66325 354.798 6.724L225.031 81.6449C223.321 82.6303 221.663 83.13 220.164 83.13ZM354.292 -33.4836L225.031 41.1445C219.322 44.4409 214.679 52.4838 214.679 59.0755V75.2745C214.679 78.3946 215.713 80.7094 217.592 81.7934C219.471 82.8788 221.993 82.6172 224.694 81.0565L354.292 6.23262V0.936871L225.031 75.5651C223.519 76.4382 222.079 76.5677 220.976 75.9306C219.872 75.2936 219.265 73.9814 219.265 72.236V56.0368C219.265 52.5797 221.7 48.3612 224.694 46.6319L354.292 -28.1919V-33.4836Z" fill="black"/>
<path d="M220.158 83.125C220.102 83.125 220.051 83.125 220 83.1237L219.954 83.1224C219.887 83.1191 219.818 83.1164 219.749 83.1125L219.705 83.1099C219.636 83.1046 219.568 83.0993 219.499 83.0921L219.46 83.0882C219.388 83.0803 219.319 83.0724 219.25 83.0612L219.221 83.0573C219.146 83.0468 219.075 83.0343 219.004 83.0211C219.004 83.0211 218.983 83.0165 218.982 83.0165C218.905 83.0021 218.828 82.9856 218.753 82.9679C218.751 82.9679 218.751 82.9679 218.75 82.9679C218.047 82.8048 217.397 82.513 216.822 82.1027C216.514 81.9259 211.355 78.9465 202.995 74.1221C159.623 49.0864 44.4135 -17.4096 44.292 -17.4812C42.2023 -18.6934 41.0508 -21.2138 41.0508 -24.5778V-40.7769C41.0508 -47.5833 45.8471 -55.8894 51.7409 -59.294L181.508 -134.215C181.612 -134.275 181.742 -134.275 181.845 -134.215L354.798 -34.3607C354.902 -34.2999 354.967 -34.1893 354.967 -34.0678V-27.9931C354.967 -27.873 354.902 -27.7609 354.798 -27.7001L351.402 -25.7401V-1.83424L354.794 0.0610809C354.901 0.120514 354.967 0.233856 354.967 0.355347V6.43002C354.967 6.55017 354.902 6.66222 354.798 6.72296L225.031 81.6438C224.931 81.7004 224.836 81.7543 224.742 81.8056L224.648 81.8575C224.583 81.8923 224.52 81.9259 224.454 81.9601L224.32 82.0271C224.268 82.0527 224.218 82.0784 224.167 82.1027L224.051 82.1579C223.996 82.1855 223.939 82.2112 223.883 82.2368C223.847 82.2526 223.811 82.269 223.775 82.2835C223.71 82.3138 223.654 82.3381 223.598 82.3604L223.481 82.4091C223.428 82.4321 223.372 82.4538 223.316 82.4755L223.202 82.5202C223.147 82.5419 223.091 82.5616 223.036 82.582L222.924 82.6214C222.867 82.6418 222.81 82.6602 222.754 82.6793L222.649 82.7128C222.589 82.7319 222.531 82.7496 222.473 82.7674L222.373 82.797C222.314 82.814 222.251 82.8305 222.191 82.8469L222.103 82.8699C222.036 82.887 221.968 82.9035 221.9 82.9186L221.836 82.933C221.752 82.9521 221.671 82.9679 221.591 82.983L221.568 82.987C221.298 83.0382 221.029 83.075 220.764 83.098C220.761 83.098 220.751 83.0994 220.748 83.0994C220.67 83.1059 220.587 83.1112 220.506 83.1151L220.483 83.1165C220.397 83.121 220.324 83.1224 220.25 83.1237H220.215C220.197 83.125 220.178 83.125 220.158 83.125ZM218.907 82.3105C218.974 82.3269 219.041 82.3407 219.109 82.3539L219.066 82.6885L219.128 82.3565C219.191 82.369 219.255 82.3795 219.319 82.3893L219.348 82.3933C219.41 82.4025 219.472 82.4091 219.534 82.4163L219.571 82.4203C219.63 82.4255 219.692 82.4308 219.753 82.436L219.793 82.4393C219.853 82.4433 219.915 82.4459 219.977 82.4472L220.019 82.4485C220.081 82.4498 220.143 82.4498 220.208 82.4498C220.209 82.4498 220.22 82.4498 220.221 82.4498H220.244C220.313 82.4485 220.38 82.4472 220.447 82.4446L220.467 82.4433C220.551 82.4393 220.625 82.4334 220.701 82.4281C220.953 82.4064 221.2 82.3729 221.448 82.3256C221.449 82.3256 221.465 82.3216 221.465 82.3216C221.543 82.3065 221.617 82.2907 221.693 82.2743L221.754 82.2592C221.816 82.246 221.877 82.2309 221.941 82.2151L222.022 82.1935C222.079 82.1783 222.134 82.1639 222.191 82.1474L222.284 82.1205C222.336 82.104 222.391 82.0883 222.446 82.0705L222.545 82.0383C222.597 82.0205 222.65 82.0028 222.702 81.9844L222.808 81.9463C222.859 81.9272 222.91 81.9088 222.963 81.8884L223.071 81.8463C223.123 81.8259 223.174 81.8042 223.226 81.7832L223.337 81.7372C223.388 81.7155 223.441 81.6925 223.492 81.6695C223.537 81.6491 223.57 81.636 223.603 81.6195C223.657 81.5952 223.71 81.5695 223.762 81.5452L223.873 81.4926C223.92 81.4696 223.967 81.4453 224.016 81.421L224.144 81.3566C224.205 81.3257 224.266 81.2928 224.326 81.2592L224.417 81.2106C224.507 81.1606 224.598 81.1107 224.688 81.0581L354.291 6.23158V0.549744L350.898 -1.34552C350.792 -1.40495 350.725 -1.51836 350.725 -1.63985V-25.9385C350.725 -26.0587 350.79 -26.1707 350.894 -26.2314L354.291 -28.1916V-33.8761L181.677 -133.532L52.0783 -58.7095C46.3695 -55.4128 41.7257 -47.3686 41.7257 -40.7769V-24.5778C41.7257 -21.4635 42.7571 -19.1511 44.6308 -18.0644C44.8144 -17.9577 164.125 50.9061 203.332 73.5349C217.174 81.5235 217.174 81.5235 217.176 81.5249C217.185 81.5308 217.193 81.536 217.203 81.5426C217.709 81.9055 218.281 82.1639 218.904 82.3092C218.904 82.3092 218.905 82.3091 218.907 82.3105Z" fill="black"/>
<path d="M130.142 30.0239V74.8349C130.142 75.207 129.84 75.5094 129.468 75.5094C129.095 75.5094 128.793 75.207 128.793 74.8349V30.0239C128.793 29.6513 129.095 29.349 129.468 29.349C129.84 29.349 130.142 29.6513 130.142 30.0239ZM125.586 39.0576C125.214 39.0576 124.912 39.36 124.912 39.7326V69.6065C124.912 69.979 125.214 70.2815 125.586 70.2815C125.959 70.2815 126.262 69.979 126.262 69.6065V39.7326C126.262 39.36 125.959 39.0576 125.586 39.0576ZM121.706 48.7676C121.333 48.7676 121.03 49.07 121.03 49.4426V64.3796C121.03 64.7521 121.333 65.0546 121.706 65.0546C122.078 65.0546 122.38 64.7521 122.38 64.3796V49.4426C122.38 49.0687 122.078 48.7676 121.706 48.7676ZM117.824 54.7411C117.452 54.7411 117.15 55.0434 117.15 55.4161V62.8852C117.15 63.2578 117.452 63.5602 117.824 63.5602C118.197 63.5602 118.499 63.2578 118.499 62.8852V55.4161C118.499 55.0434 118.197 54.7411 117.824 54.7411ZM113.945 58.8489C113.572 58.8489 113.27 59.1513 113.27 59.5239V63.2578C113.27 63.6303 113.572 63.9327 113.945 63.9327C114.318 63.9327 114.62 63.6303 114.62 63.2578V59.5239C114.62 59.1513 114.318 58.8489 113.945 58.8489ZM82.8978 76.7743C82.5251 76.7743 82.2227 77.0767 82.2227 77.4494V81.1836C82.2227 81.5563 82.5251 81.8587 82.8978 81.8587C83.2706 81.8587 83.573 81.5563 83.573 81.1836V77.4494C83.573 77.0767 83.2706 76.7743 82.8978 76.7743ZM102.301 52.5016C101.929 52.5016 101.627 52.804 101.627 53.1765V83.0506C101.627 83.4227 101.929 83.7251 102.301 83.7251C102.674 83.7251 102.977 83.4227 102.977 83.0506V53.1765C102.977 52.804 102.674 52.5016 102.301 52.5016ZM106.183 57.7298C105.81 57.7298 105.508 58.0322 105.508 58.4048V73.3417C105.508 73.7143 105.81 74.0167 106.183 74.0167C106.556 74.0167 106.858 73.7143 106.858 73.3417V58.4048C106.858 58.0309 106.556 57.7298 106.183 57.7298ZM110.064 59.2228C109.691 59.2228 109.389 59.5252 109.389 59.8978V67.3669C109.389 67.7396 109.691 68.0419 110.064 68.0419C110.436 68.0419 110.739 67.7396 110.739 67.3669V59.8978C110.739 59.5252 110.436 59.2228 110.064 59.2228ZM98.4207 47.2733C98.0479 47.2733 97.7455 47.5757 97.7455 47.9482V92.7593C97.7455 93.1314 98.0479 93.4338 98.4207 93.4338C98.7934 93.4338 99.0959 93.1314 99.0959 92.7593V47.9482C99.0959 47.5757 98.7934 47.2733 98.4207 47.2733ZM94.5393 56.982C94.1672 56.982 93.8648 57.2844 93.8648 57.6569V87.5309C93.8648 87.9036 94.1672 88.2061 94.5393 88.2061C94.9121 88.2061 95.2145 87.9036 95.2145 87.5309V57.6569C95.2145 57.2844 94.9134 56.982 94.5393 56.982ZM90.6599 66.692C90.2872 66.692 89.9847 66.9944 89.9847 67.3669V82.3038C89.9847 82.6765 90.2872 82.979 90.6599 82.979C91.0327 82.979 91.3351 82.6765 91.3351 82.3038V67.3669C91.3351 66.993 91.0327 66.692 90.6599 66.692ZM86.7785 72.6668C86.4064 72.6668 86.104 72.9692 86.104 73.3417V80.8108C86.104 81.1836 86.4064 81.486 86.7785 81.486C87.1513 81.486 87.4537 81.1836 87.4537 80.8108V73.3417C87.4537 72.9692 87.1513 72.6668 86.7785 72.6668ZM133.348 12.1711C132.976 12.1711 132.674 12.4735 132.674 12.8461V87.5309C132.674 87.9036 132.976 88.2061 133.348 88.2061C133.721 88.2061 134.024 87.9036 134.024 87.5309V12.8461C134.024 12.4735 133.721 12.1711 133.348 12.1711ZM137.229 24.8672C136.856 24.8672 136.553 25.1696 136.553 25.5422V70.353C136.553 70.7256 136.856 71.0279 137.229 71.0279C137.601 71.0279 137.903 70.7256 137.903 70.353V25.5422C137.903 25.1696 137.602 24.8672 137.229 24.8672ZM141.109 30.0955C140.736 30.0955 140.434 30.3978 140.434 30.7705V60.6443C140.434 61.0169 140.736 61.3193 141.109 61.3193C141.482 61.3193 141.784 61.0169 141.784 60.6443V30.7705C141.784 30.3978 141.482 30.0955 141.109 30.0955ZM144.991 35.3237C144.618 35.3237 144.315 35.6261 144.315 35.9987V50.9357C144.315 51.3082 144.618 51.6106 144.991 51.6106C145.363 51.6106 145.665 51.3082 145.665 50.9357V35.9987C145.665 35.6261 145.363 35.3237 144.991 35.3237ZM148.871 36.8168C148.499 36.8168 148.196 37.1192 148.196 37.4917V44.9609C148.196 45.3334 148.499 45.6358 148.871 45.6358C149.244 45.6358 149.546 45.3334 149.546 44.9609V37.4917C149.546 37.1192 149.244 36.8168 148.871 36.8168ZM152.753 36.4442C152.38 36.4442 152.078 36.7465 152.078 37.1192V40.853C152.078 41.2256 152.38 41.528 152.753 41.528C153.125 41.528 153.427 41.2256 153.427 40.853V37.1192C153.427 36.7465 153.125 36.4442 152.753 36.4442ZM183.798 18.5185C183.426 18.5185 183.123 18.8209 183.123 19.1935V22.9274C183.123 23.2999 183.426 23.6023 183.798 23.6023C184.171 23.6023 184.473 23.2999 184.473 22.9274V19.1935C184.473 18.8209 184.171 18.5185 183.798 18.5185ZM164.394 16.6516C164.021 16.6516 163.719 16.9539 163.719 17.3265V47.2004C163.719 47.573 164.021 47.8753 164.394 47.8753C164.767 47.8753 165.069 47.573 165.069 47.2004V17.3265C165.069 16.9539 164.767 16.6516 164.394 16.6516ZM160.513 26.3616C160.141 26.3616 159.838 26.664 159.838 27.0365V41.9735C159.838 42.3461 160.141 42.6484 160.513 42.6484C160.886 42.6484 161.188 42.3461 161.188 41.9735V27.0365C161.188 26.6626 160.886 26.3616 160.513 26.3616ZM156.633 32.3364C156.261 32.3364 155.958 32.6388 155.958 33.0113V40.4805C155.958 40.853 156.261 41.1554 156.633 41.1554C157.006 41.1554 157.309 40.853 157.309 40.4805V33.0113C157.309 32.6388 157.006 32.3364 156.633 32.3364ZM168.276 6.94287C167.903 6.94287 167.6 7.24526 167.6 7.61784V52.4286C167.6 52.8013 167.903 53.1036 168.276 53.1036C168.648 53.1036 168.95 52.8013 168.95 52.4286V7.61784C168.95 7.24526 168.648 6.94287 168.276 6.94287ZM172.156 12.1711C171.784 12.1711 171.481 12.4735 171.481 12.8461V42.72C171.481 43.0926 171.784 43.395 172.156 43.395C172.529 43.395 172.831 43.0926 172.831 42.72V12.8461C172.831 12.4735 172.529 12.1711 172.156 12.1711ZM176.038 17.3994C175.665 17.3994 175.362 17.7018 175.362 18.0744V33.0113C175.362 33.3839 175.665 33.6863 176.038 33.6863C176.41 33.6863 176.712 33.3839 176.712 33.0113V18.0744C176.712 17.7005 176.41 17.3994 176.038 17.3994ZM179.917 18.8924C179.544 18.8924 179.242 19.1948 179.242 19.5674V27.0365C179.242 27.4091 179.544 27.7115 179.917 27.7115C180.29 27.7115 180.592 27.4091 180.592 27.0365V19.5674C180.592 19.1948 180.291 18.8924 179.917 18.8924Z" fill="white"/>
<path d="M283.687 124.501L130.797 212.771H283.687V124.501Z" fill="#718096"/>
<path d="M130.797 212.771H160.302L283.687 141.536V124.501L130.797 212.771Z" fill="#A0AEC0"/>
<path d="M126.973 215.316C126.857 215.316 126.744 215.255 126.68 215.147C126.587 214.986 126.643 214.78 126.804 214.686L287.34 122.002C287.503 121.909 287.708 121.965 287.802 122.127C287.896 122.289 287.84 122.494 287.678 122.588L127.141 215.27C127.089 215.301 127.031 215.316 126.973 215.316Z" fill="black"/>
<path d="M156.479 215.317C156.363 215.317 156.249 215.255 156.186 215.148C156.093 214.986 156.148 214.78 156.31 214.686L287.339 139.036C287.501 138.943 287.706 138.998 287.801 139.16C287.896 139.322 287.839 139.527 287.677 139.622L156.648 215.272C156.594 215.301 156.536 215.317 156.479 215.317Z" fill="black"/>
</g>
</g>
<defs>
<linearGradient id="paint0_linear" x1="30.9935" y1="99.9465" x2="249.615" y2="99.9465" gradientUnits="userSpaceOnUse">
<stop stop-color="#C88BC4"/>
<stop offset="0.5" stop-color="#7B8FDD"/>
<stop offset="1" stop-color="#86BFF2"/>
</linearGradient>
<linearGradient id="paint1_linear" x1="37.693" y1="86.1386" x2="133.586" y2="86.1386" gradientUnits="userSpaceOnUse">
<stop stop-color="white"/>
<stop offset="1"/>
</linearGradient>
<linearGradient id="paint2_linear" x1="37.693" y1="86.1386" x2="133.586" y2="86.1386" gradientUnits="userSpaceOnUse">
<stop stop-color="white"/>
<stop offset="1"/>
</linearGradient>
<linearGradient id="paint3_linear" x1="136.762" y1="77.8139" x2="54.1459" y2="77.8139" gradientUnits="userSpaceOnUse">
<stop/>
<stop offset="1" stop-color="#2D3748"/>
</linearGradient>
<clipPath id="clip0">
<rect width="262.966" height="182.104" fill="white" transform="translate(8.51758 8.51709)"/>
</clipPath>
</defs>
</svg>
