<svg width="263" height="187" viewBox="0 0 263 187" fill="none" xmlns="http://www.w3.org/2000/svg">
<path d="M0 8C0 3.58172 3.58172 0 8 0H255C259.418 0 263 3.58172 263 8V179C263 183.418 259.418 187 255 187H8.00001C3.58173 187 0 183.418 0 179V8Z" fill="white"/>
<mask id="mask0" mask-type="alpha" maskUnits="userSpaceOnUse" x="8" y="8" width="247" height="171">
<rect x="8" y="8" width="247" height="171" fill="#C4C4C4"/>
</mask>
<g mask="url(#mask0)">
</g>
<g clip-path="url(#clip0)">
<path d="M255 8.00061H7.99994V179.048H255V8.00061Z" fill="white"/>
<path d="M256.464 7.69763H7.66656V179.986H256.464V7.69763Z" fill="#CBD5E0"/>
<path d="M258.285 147.265L198.221 181.944H258.285V147.265ZM258.285 107.801L230.837 123.646V131.538L258.285 115.692V107.801Z" fill="#7B8FDD"/>
<path d="M258.285 182.253H198.221C198.079 182.253 197.955 182.16 197.918 182.024C197.881 181.889 197.943 181.747 198.06 181.672L258.124 146.994C258.223 146.938 258.341 146.938 258.433 146.994C258.532 147.049 258.588 147.154 258.588 147.265V181.944C258.594 182.111 258.458 182.253 258.285 182.253ZM199.382 181.629H257.976V147.803L199.382 181.629ZM230.837 131.846C230.782 131.846 230.732 131.834 230.683 131.803C230.584 131.748 230.528 131.643 230.528 131.531V123.64C230.528 123.529 230.59 123.424 230.683 123.368L258.131 107.523C258.229 107.468 258.347 107.468 258.439 107.523C258.538 107.579 258.594 107.684 258.594 107.795V115.68C258.594 115.791 258.532 115.896 258.439 115.952L230.991 131.797C230.942 131.834 230.893 131.846 230.837 131.846ZM231.146 123.825V130.994L257.97 115.507V108.338L231.146 123.825Z" fill="black"/>
<path d="M258.285 90.1529L249.634 85.1573L206.909 109.826L230.837 123.64L258.285 107.795V90.1529Z" fill="white"/>
<path d="M230.837 123.955C230.782 123.955 230.732 123.942 230.683 123.911L206.755 110.098C206.656 110.042 206.6 109.937 206.6 109.826C206.6 109.715 206.662 109.61 206.755 109.554L249.48 84.8854C249.578 84.8298 249.696 84.8298 249.788 84.8854L258.44 89.8809C258.538 89.9365 258.594 90.0415 258.594 90.1526V107.795C258.594 107.906 258.532 108.011 258.44 108.066L230.992 123.911C230.942 123.942 230.893 123.955 230.837 123.955ZM207.533 109.826L230.837 123.282L257.97 107.616V90.3317L249.634 85.5152L207.533 109.826Z" fill="black"/>
<path d="M230.837 131.532V123.64L206.909 109.826V117.724L230.837 131.532ZM189.415 81.3659L192.836 77.0804L189.415 75.1106L186 77.0804V83.3419L180.455 92.9378L185.29 95.7289L187.705 91.5423L187.97 90.1591L189.076 88.4239L190.119 87.3556L187.705 91.5484L191.119 93.5183L198.369 86.5405L189.415 81.3659Z" fill="black"/>
<path d="M230.837 131.846C230.782 131.846 230.732 131.834 230.683 131.803L206.755 117.996C206.656 117.94 206.6 117.835 206.6 117.724V109.826C206.6 109.715 206.662 109.61 206.755 109.554C206.853 109.499 206.971 109.499 207.063 109.554L230.991 123.368C231.09 123.424 231.146 123.528 231.146 123.64V131.531C231.146 131.642 231.084 131.747 230.991 131.803C230.942 131.834 230.893 131.846 230.837 131.846ZM207.218 117.545L230.522 130.994V123.825L207.218 110.37V117.545ZM185.296 96.0436C185.241 96.0436 185.191 96.0312 185.142 96.0003L180.307 93.2092C180.233 93.166 180.184 93.0981 180.165 93.0178C180.147 92.9375 180.153 92.8511 180.196 92.7832L185.698 83.2613V77.0801C185.698 76.969 185.76 76.864 185.852 76.8084L189.267 74.8386C189.366 74.783 189.483 74.783 189.576 74.8386L192.997 76.8084C193.077 76.8517 193.133 76.9319 193.145 77.0184C193.163 77.1048 193.139 77.1975 193.083 77.2716L189.884 81.2791L198.529 86.2685C198.616 86.3179 198.671 86.4044 198.684 86.497C198.696 86.5958 198.659 86.6884 198.591 86.7564L191.342 93.7341C191.243 93.8267 191.089 93.8514 190.971 93.7773L187.822 91.9619L185.562 95.8768C185.519 95.9509 185.451 96.0003 185.371 96.025C185.346 96.0374 185.321 96.0436 185.296 96.0436ZM180.881 92.8264L185.179 95.3087L187.414 91.437L187.674 90.1032C187.68 90.0662 187.699 90.0291 187.717 89.9921L188.822 88.2569C188.835 88.2384 188.847 88.2198 188.859 88.2075L189.903 87.1392C190.014 87.0281 190.187 87.0157 190.311 87.1083C190.434 87.201 190.471 87.3739 190.391 87.5097L188.131 91.4308L191.076 93.129L197.863 86.602L189.261 81.6373C189.181 81.5941 189.125 81.5138 189.113 81.4273C189.094 81.3409 189.119 81.2483 189.174 81.1742L192.373 77.1666L189.421 75.4685L186.315 77.2592V83.3416C186.315 83.3972 186.303 83.4527 186.272 83.496L180.881 92.8264Z" fill="black"/>
<path d="M192.842 83.3418V77.0804L189.421 79.0564V85.3117L183.876 94.9138L188.711 97.6987L191.126 93.5121L188.711 92.1227L191.126 87.936L193.546 89.3316L191.126 93.5182L193.546 94.92L198.375 86.5467L192.842 83.3418Z" fill="#C88BC4"/>
<path d="M188.711 98.0133C188.656 98.0133 188.606 98.001 188.557 97.9701L183.722 95.1852C183.648 95.142 183.598 95.074 183.574 94.9938C183.555 94.9135 183.561 94.827 183.604 94.7591L189.106 85.2249V79.0499C189.106 78.9388 189.168 78.8338 189.261 78.7782L192.682 76.8022C192.78 76.7466 192.898 76.7466 192.99 76.8022C193.089 76.8578 193.145 76.9628 193.145 77.0739V83.1563L198.523 86.2623C198.671 86.3488 198.721 86.5402 198.634 86.6884L193.806 95.0617C193.762 95.1358 193.694 95.1852 193.614 95.2099C193.534 95.2284 193.447 95.2222 193.379 95.179L191.224 93.9378L188.964 97.8528C188.921 97.9578 188.816 98.0133 188.711 98.0133ZM184.296 94.8023L188.594 97.2785L190.7 93.6353L188.557 92.4003C188.483 92.357 188.433 92.2891 188.409 92.2088C188.39 92.1286 188.396 92.0421 188.439 91.9742L190.854 87.7875C190.94 87.6393 191.132 87.5899 191.28 87.6764L193.701 89.0719C193.775 89.1152 193.824 89.1831 193.849 89.2634C193.867 89.3436 193.861 89.4301 193.818 89.498L191.552 93.413L193.435 94.4998L197.955 86.6637L192.688 83.6194C192.589 83.5638 192.533 83.4589 192.533 83.3477V77.6235L189.73 79.2413V85.3175C189.73 85.3731 189.718 85.4287 189.687 85.4719L184.296 94.8023ZM189.137 92.0112L191.014 93.0919L193.126 89.4486L191.243 88.368L189.137 92.0112Z" fill="black"/>
<path d="M258.285 30.8908V10.643L238.124 22.2829V25.2407L197.362 48.7798L185.383 52.8677C185.031 52.985 184.66 53.1517 184.29 53.3617C181.456 54.9919 179.165 58.9747 179.165 62.2413V74.0788L189.421 80.0006L194.547 65.2053L204.803 59.2835C204.803 59.2835 236.592 38.4429 234.412 41.7403C223.174 58.7586 207.082 83.1313 207.082 83.1313C206.736 83.6377 206.403 84.1687 206.088 84.7183C202.08 91.6528 202.08 99.1493 206.088 101.465L216.344 107.387L222.816 108.548L249.591 98.3095L227.126 80.118C236.03 62.3154 256.815 33.1015 256.828 33.083C257.069 32.589 257.63 31.7924 258.285 30.8908Z" fill="black"/>
<path d="M222.81 108.85C222.791 108.85 222.772 108.85 222.754 108.844L216.283 107.683C216.245 107.677 216.215 107.665 216.184 107.646L205.927 101.724C203.889 100.551 202.765 98.0936 202.765 94.8147C202.765 91.5975 203.846 87.9542 205.81 84.5518C206.106 84.0393 206.433 83.5144 206.816 82.9463L234.011 41.7591C231.14 42.7224 215.023 52.9358 204.964 59.5307L194.794 65.4031L189.705 80.0935C189.674 80.1799 189.607 80.2478 189.52 80.2849C189.434 80.3158 189.335 80.3096 189.255 80.2602L178.998 74.3384C178.899 74.2828 178.844 74.1778 178.844 74.0667V62.2354C178.844 58.87 181.215 54.7698 184.123 53.0902C184.5 52.8741 184.889 52.7012 185.272 52.5715L197.245 48.4836L237.796 25.0619V22.2831C237.796 22.172 237.858 22.067 237.951 22.0114L258.112 10.3715C258.211 10.3159 258.328 10.3159 258.421 10.3715C258.52 10.4271 258.575 10.5321 258.575 10.6432V30.8911C258.575 30.959 258.557 31.0207 258.513 31.0763C257.921 31.8914 257.322 32.7312 257.081 33.2129C257.075 33.2252 257.056 33.2561 257.044 33.2684C256.192 34.4664 236.222 62.6614 227.49 80.0255L249.763 98.0627C249.85 98.1306 249.893 98.2418 249.875 98.3529C249.856 98.4641 249.782 98.5567 249.677 98.5938L222.902 108.832C222.884 108.844 222.847 108.85 222.81 108.85ZM216.449 107.084L222.779 108.221L248.967 98.2109L226.922 80.359C226.811 80.2664 226.774 80.1058 226.842 79.9761C235.536 62.5935 255.704 34.1144 256.556 32.9165C256.778 32.4719 257.266 31.7741 257.97 30.7984V11.1804L238.432 22.4622V25.2409C238.432 25.3521 238.371 25.4571 238.278 25.5126L197.517 49.0517L185.482 53.1643C185.136 53.2816 184.784 53.436 184.444 53.6336C181.703 55.2144 179.48 59.0738 179.48 62.2415V73.8999L189.255 79.5439L194.256 65.1006C194.281 65.0326 194.33 64.9709 194.392 64.9338L204.649 59.012C204.704 58.975 211.898 54.2573 219.123 49.7248C233.937 40.4191 234.406 40.8946 234.715 41.2033C234.832 41.3206 234.919 41.5368 234.672 41.9134L207.341 83.3045C206.964 83.8602 206.643 84.3727 206.359 84.8729C204.445 88.1827 203.395 91.7148 203.395 94.827C203.395 97.8713 204.408 100.138 206.242 101.193L216.449 107.084Z" fill="black"/>
<path d="M258.285 98.1059L230.837 82.2608L216.332 107.381L230.837 115.748L258.285 99.9028V98.1059Z" fill="#C88BC4"/>
<path d="M230.837 116.063C230.782 116.063 230.732 116.051 230.683 116.02L216.184 107.653C216.11 107.609 216.06 107.541 216.042 107.467C216.023 107.387 216.03 107.301 216.073 107.233L230.578 82.1128C230.621 82.0387 230.689 81.9893 230.769 81.9646C230.85 81.946 230.936 81.9522 231.004 81.9954L258.452 97.8405C258.551 97.8961 258.606 98.001 258.606 98.1122V99.9091C258.606 100.02 258.544 100.125 258.452 100.181L231.004 116.026C230.942 116.044 230.887 116.063 230.837 116.063ZM216.758 107.264L230.837 115.39L257.97 99.7239V98.2851L230.948 82.6809L216.758 107.264Z" fill="black"/>
<path d="M238.124 25.2469L197.363 48.786L185.383 52.8738C185.031 52.9912 184.661 53.1579 184.29 53.3678C182.876 54.1829 181.592 55.5908 180.665 57.1963L194.541 65.2115L248.368 31.1749L238.124 25.2469Z" fill="white"/>
<path d="M194.547 65.5143C194.491 65.5143 194.442 65.502 194.392 65.4711L180.517 57.4621C180.369 57.3757 180.319 57.1842 180.406 57.036C181.4 55.3132 182.728 53.9115 184.142 53.0964C184.518 52.8803 184.907 52.7074 185.29 52.5777L197.264 48.4899L237.969 24.9816C238.068 24.926 238.185 24.926 238.278 24.9816L248.535 30.9034C248.627 30.959 248.689 31.0578 248.689 31.169C248.689 31.2801 248.633 31.3789 248.547 31.4407L194.719 65.4773C194.664 65.502 194.608 65.5143 194.547 65.5143ZM181.097 57.0855L194.54 64.8474L247.775 31.1875L238.124 25.6115L197.517 49.0579L185.482 53.1705C185.136 53.2878 184.79 53.4422 184.444 53.6398C183.203 54.3561 182.018 55.5726 181.097 57.0855Z" fill="black"/>
<path d="M230.831 99.0077C234.832 92.0732 234.838 84.5767 230.837 82.2673C226.836 79.9578 220.346 83.706 216.338 90.6406C212.331 97.5751 212.331 105.072 216.332 107.381C220.333 109.697 226.823 105.948 230.831 99.0077Z" fill="#7B8FDD"/>
<path d="M258.285 22.481L248.38 28.199V40.0365L258.285 34.3184V22.481Z" fill="#C88BC4"/>
<path d="M248.38 40.3574C248.325 40.3574 248.275 40.345 248.226 40.3141C248.127 40.2586 248.072 40.1536 248.072 40.0424V28.205C248.072 28.0938 248.133 27.9888 248.226 27.9333L258.131 22.209C258.23 22.1535 258.347 22.1535 258.44 22.209C258.538 22.2646 258.594 22.3696 258.594 22.4807V34.3182C258.594 34.4294 258.532 34.5343 258.44 34.5899L248.535 40.3141C248.485 40.3388 248.43 40.3574 248.38 40.3574ZM248.689 28.384V39.5052L257.97 34.1453V23.0241L248.689 28.384Z" fill="black"/>
<path d="M199.672 74.0855L189.415 80.0074V68.1638L199.672 62.2419V74.0855Z" fill="#7B8FDD"/>
<path d="M189.415 80.3159C189.36 80.3159 189.31 80.3036 189.261 80.2727C189.162 80.2171 189.106 80.1121 189.106 80.001V68.1635C189.106 68.0524 189.168 67.9474 189.261 67.8918L199.517 61.97C199.616 61.9144 199.734 61.9144 199.826 61.97C199.925 62.0256 199.981 62.1305 199.981 62.2417V74.0792C199.981 74.1903 199.919 74.2953 199.826 74.3509L189.57 80.2727C189.526 80.2974 189.471 80.3159 189.415 80.3159ZM189.724 68.3426V79.4638L199.357 73.9001V62.7789L189.724 68.3426Z" fill="black"/>
<path d="M248.38 37.0908L207.366 60.7658V54.844L248.38 31.169V37.0908ZM258.285 28.4273C257.229 29.1189 256.185 30.1748 255.327 31.5086C255.29 31.5642 217.332 89.0536 217.332 89.0536C216.993 89.5599 216.653 90.091 216.338 90.6406C212.331 97.5751 212.331 105.072 216.338 107.387C220.346 109.697 226.836 105.955 230.843 99.02C231.158 98.4705 231.454 97.9209 231.72 97.3651C231.72 97.3651 249.825 61.1548 258.291 44.223V28.4273H258.285Z" fill="#7B8FDD"/>
<path d="M218.975 108.369C217.968 108.369 217.024 108.14 216.184 107.652C214.146 106.479 213.022 104.021 213.022 100.743C213.022 97.5253 214.103 93.8821 216.067 90.4797C216.363 89.9671 216.69 89.4423 217.073 88.8742C217.45 88.3061 254.914 31.57 255.068 31.3354C255.926 30.0078 256.976 28.9086 258.118 28.1614C258.211 28.0997 258.334 28.0935 258.439 28.1491C258.538 28.2047 258.6 28.3096 258.6 28.4208V44.2103C258.6 44.2597 258.588 44.3091 258.569 44.3523L231.998 97.4945C231.745 98.0193 231.455 98.5689 231.109 99.1617C227.848 104.806 222.933 108.369 218.975 108.369ZM257.976 29.0259C257.093 29.699 256.278 30.6067 255.593 31.6688C255.562 31.7182 223.934 79.6178 217.592 89.22C217.215 89.7757 216.894 90.2882 216.61 90.7884C214.696 94.0982 213.646 97.6303 213.646 100.743C213.646 103.793 214.659 106.053 216.493 107.115C220.34 109.338 226.657 105.633 230.572 98.8591C230.905 98.2787 231.189 97.7415 231.436 97.2289L257.976 44.1485V29.0259ZM207.36 61.0742C207.304 61.0742 207.255 61.0618 207.205 61.031C207.107 60.9754 207.051 60.8704 207.051 60.7593V54.8374C207.051 54.7263 207.113 54.6213 207.205 54.5657L248.22 30.8908C248.319 30.8352 248.436 30.8352 248.529 30.8908C248.627 30.9464 248.683 31.0513 248.683 31.1625V37.0843C248.683 37.1955 248.621 37.3004 248.529 37.356L207.514 61.031C207.471 61.0557 207.415 61.0742 207.36 61.0742ZM207.675 55.0227V60.222L248.065 36.9052V31.7059L207.675 55.0227Z" fill="black"/>
<path d="M209.175 58.8576C210.176 57.1224 210.176 55.2514 209.175 54.6771C208.175 54.0966 206.551 55.0352 205.551 56.7704C204.55 58.5056 204.55 60.3766 205.551 60.9509C206.551 61.5252 208.175 60.5866 209.175 58.8576Z" fill="#C88BC4"/>
<path d="M206.217 61.4264C205.921 61.4264 205.643 61.3585 205.39 61.2103C204.803 60.8706 204.482 60.1914 204.482 59.2837C204.482 58.4377 204.766 57.4867 205.273 56.6037C206.378 54.6956 208.156 53.7262 209.317 54.3992C209.904 54.7389 210.225 55.4181 210.225 56.3258C210.225 57.1718 209.947 58.1228 209.435 59.0058C208.576 60.5125 207.298 61.4264 206.217 61.4264ZM208.502 54.813C207.662 54.813 206.551 55.6466 205.816 56.9186C205.359 57.709 205.106 58.5488 205.106 59.2898C205.106 59.9629 205.316 60.4569 205.699 60.6792C206.532 61.1609 208.002 60.2593 208.897 58.7032C209.354 57.9128 209.607 57.073 209.607 56.332C209.607 55.6589 209.397 55.1649 209.015 54.9426C208.866 54.8562 208.687 54.813 208.502 54.813Z" fill="black"/>
<path d="M195.64 70.3557C195.288 70.6521 194.917 70.9053 194.547 71.1214C191.712 72.7516 189.421 71.4301 189.421 68.1635C189.421 64.8908 191.718 60.9202 194.547 59.2839C194.892 59.0801 195.257 58.9195 195.64 58.7899L207.817 54.6341C209.015 54.1895 209.922 54.8749 209.922 56.326C209.922 57.7833 209.008 59.5185 207.817 60.4571L195.64 70.3557Z" fill="#C88BC4"/>
<path d="M192.256 72.1398C191.712 72.1398 191.212 72.0102 190.768 71.757C189.699 71.1395 189.113 69.8674 189.113 68.1755C189.113 64.8163 191.484 60.7099 194.392 59.0303C194.757 58.8204 195.146 58.6413 195.541 58.5116L207.718 54.3558C208.36 54.1212 208.978 54.1644 209.441 54.4855C209.953 54.8437 210.237 55.5044 210.237 56.3442C210.237 57.8632 209.305 59.7034 208.014 60.7161L195.843 70.6023C195.51 70.8863 195.127 71.1518 194.713 71.3988C193.849 71.8867 193.015 72.1398 192.256 72.1398ZM208.508 54.819C208.329 54.819 208.132 54.856 207.928 54.9363L195.745 59.0982C195.386 59.2156 195.041 59.3761 194.707 59.5675C191.965 61.1483 189.736 65.0139 189.736 68.1755C189.736 69.639 190.212 70.7196 191.082 71.2198C191.947 71.7199 193.126 71.5964 194.398 70.8616C194.781 70.6331 195.133 70.3861 195.442 70.1268C195.442 70.1268 195.442 70.1268 195.448 70.1206L207.625 60.2283C208.761 59.3329 209.614 57.6656 209.614 56.338C209.614 55.7082 209.428 55.2265 209.083 54.9919C208.916 54.8745 208.724 54.819 208.508 54.819Z" fill="black"/>
<path d="M196.362 66.2552C197.363 64.52 197.363 62.649 196.362 62.0748C195.362 61.4943 193.738 62.4329 192.737 64.1681C191.737 65.9033 191.737 67.7743 192.737 68.3485C193.738 68.9228 195.362 67.9842 196.362 66.2552Z" fill="black"/>
<path d="M228.416 97.6181C231.084 92.993 231.084 87.9975 228.416 86.4537C225.743 84.91 221.414 87.4108 218.746 92.0297C216.079 96.6548 216.079 101.65 218.746 103.194C221.42 104.738 225.749 102.237 228.416 97.6181Z" fill="#D1AAD7"/>
<path d="M220.531 103.966C219.827 103.966 219.172 103.799 218.592 103.466C215.776 101.842 215.727 96.6423 218.475 91.8814C219.79 89.5967 221.55 87.7503 223.421 86.6697C225.347 85.5582 227.175 85.3853 228.565 86.1942C229.954 86.997 230.726 88.6642 230.726 90.8872C230.726 93.0485 230.003 95.4938 228.682 97.7785C227.367 100.063 225.607 101.916 223.736 102.996C222.618 103.639 221.525 103.966 220.531 103.966ZM226.632 86.3054C225.749 86.3054 224.767 86.608 223.736 87.2008C221.957 88.2258 220.278 89.998 219.018 92.1902C216.437 96.6547 216.388 101.471 218.907 102.928C220.099 103.614 221.704 103.447 223.433 102.453C225.212 101.428 226.891 99.6557 228.151 97.4636C229.417 95.2777 230.108 92.9373 230.108 90.8811C230.108 88.8865 229.454 87.4107 228.262 86.7253C227.78 86.4474 227.231 86.3054 226.632 86.3054Z" fill="black"/>
<path d="M226.002 96.2224C227.336 93.9068 227.336 91.4121 226.002 90.6402C224.668 89.8683 222.501 91.1219 221.167 93.4313C219.833 95.7469 219.833 98.2478 221.167 99.0135C222.501 99.7854 224.668 98.5319 226.002 96.2224Z" fill="white"/>
<path d="M222.063 99.5573C221.686 99.5573 221.328 99.4709 221.013 99.2856C219.506 98.415 219.457 95.7782 220.902 93.2774C221.575 92.1103 222.476 91.1655 223.433 90.6097C224.446 90.0231 225.416 89.9367 226.163 90.3689C227.669 91.2396 227.719 93.8763 226.274 96.3772C225.131 98.347 223.458 99.5573 222.063 99.5573ZM225.107 90.7209C224.693 90.7209 224.224 90.8629 223.736 91.147C222.871 91.6471 222.05 92.5117 221.433 93.5861C220.204 95.7103 220.154 98.0753 221.321 98.7484C222.489 99.4153 224.508 98.1926 225.73 96.0684C226.959 93.9442 227.009 91.5792 225.848 90.9061C225.632 90.7826 225.378 90.7209 225.107 90.7209Z" fill="black"/>
<path d="M258.285 10.643L238.124 22.2829L248.38 28.2047L258.285 22.4867V10.643Z" fill="white"/>
<path d="M248.38 28.5136C248.325 28.5136 248.275 28.5013 248.226 28.4704L237.969 22.5485C237.87 22.493 237.815 22.388 237.815 22.2769C237.815 22.1657 237.877 22.0608 237.969 22.0052L258.131 10.3653C258.229 10.3097 258.347 10.3097 258.439 10.3653C258.538 10.4209 258.594 10.5258 258.594 10.637V22.4745C258.594 22.5856 258.532 22.6906 258.439 22.7461L248.535 28.4704C248.485 28.5013 248.43 28.5136 248.38 28.5136ZM238.741 22.283L248.374 27.8467L257.97 22.3078V11.1804L238.741 22.283Z" fill="black"/>
<path d="M80.8835 130.717L116.766 109.999L84.0945 110.913L79.0434 125.598L78.9014 127.672L80.8835 130.717ZM127.023 157.362L162.906 136.645L130.234 137.558L125.183 152.236L125.041 154.311L127.023 157.362Z" fill="#7B8FDD"/>
<path d="M127.023 157.67C126.918 157.67 126.819 157.621 126.764 157.528L124.781 154.478C124.744 154.422 124.726 154.354 124.732 154.286L124.874 152.211C124.874 152.187 124.88 152.156 124.893 152.131L129.944 137.453C129.987 137.33 130.098 137.249 130.228 137.243L162.9 136.329C163.054 136.317 163.171 136.416 163.209 136.558C163.246 136.694 163.19 136.842 163.066 136.91L127.177 157.633C127.128 157.658 127.072 157.67 127.023 157.67ZM125.356 154.224L127.122 156.941L161.683 136.984L130.456 137.855L125.492 152.292L125.356 154.224ZM80.8834 131.031C80.7784 131.031 80.6796 130.982 80.6241 130.889L78.6419 127.845C78.6048 127.789 78.5863 127.721 78.5925 127.653L78.7345 125.579C78.7345 125.554 78.7407 125.523 78.753 125.498L83.8042 110.808C83.8474 110.685 83.9586 110.604 84.0882 110.598L116.76 109.684C116.915 109.672 117.032 109.771 117.069 109.913C117.106 110.048 117.05 110.197 116.927 110.265L81.044 130.982C80.9884 131.013 80.9328 131.031 80.8834 131.031ZM79.2162 127.592L80.9822 130.303L115.544 110.345L84.3167 111.216L79.352 125.659L79.2162 127.592Z" fill="black"/>
<path d="M150.012 150.63L140.027 141.979C138.224 140.417 136.576 138.392 135.267 136.113L127.9 123.355C124.053 116.693 118.835 111.184 113.401 108.054L95.3822 97.6488C92.6652 96.0804 90.0532 95.8149 88.1328 96.9264L76.956 103.379C76.1903 103.824 75.7581 104.781 75.7581 106.034V125.387C75.7581 126.696 76.6781 128.283 77.8082 128.938L80.8833 130.716C80.8833 124.177 85.4713 121.521 91.14 124.794C96.8086 128.067 101.397 136.014 101.397 142.553L127.029 157.349C127.029 150.809 131.617 148.154 137.286 151.427C142.954 154.7 147.542 162.647 147.542 169.186L155.749 173.922C156.879 174.571 157.799 174.046 157.799 172.737V166.593C157.781 161.171 154.576 154.582 150.012 150.63Z" fill="black"/>
<path d="M156.651 174.522C156.317 174.522 155.953 174.417 155.582 174.201L147.376 169.464C147.277 169.409 147.221 169.304 147.221 169.193C147.221 162.764 142.689 154.916 137.119 151.705C134.476 150.18 132.012 149.927 130.178 150.983C128.344 152.045 127.332 154.305 127.332 157.355C127.332 157.466 127.27 157.571 127.177 157.627C127.079 157.682 126.961 157.682 126.869 157.627L101.236 142.832C101.137 142.776 101.082 142.671 101.082 142.56C101.082 136.132 96.5493 128.283 90.9795 125.066C88.3427 123.541 85.8789 123.288 84.0388 124.35C82.2048 125.412 81.1921 127.672 81.1921 130.722C81.1921 130.834 81.1303 130.938 81.0377 130.994C80.9389 131.05 80.8216 131.05 80.729 130.994L77.6538 129.216C76.4188 128.499 75.4493 126.82 75.4493 125.393V106.041C75.4493 104.664 75.931 103.626 76.8078 103.114L87.9846 96.661C89.9915 95.5001 92.7455 95.7595 95.549 97.3835L113.568 107.788C119.082 110.969 124.275 116.446 128.184 123.207L135.551 135.965C136.841 138.206 138.459 140.201 140.244 141.751L150.229 150.402C154.86 154.416 158.102 161.072 158.108 166.599V172.743C158.108 173.49 157.842 174.059 157.355 174.343C157.132 174.46 156.904 174.522 156.651 174.522ZM147.839 169.014L155.891 173.657C156.336 173.916 156.743 173.966 157.027 173.799C157.311 173.632 157.472 173.256 157.472 172.737V166.593C157.466 161.239 154.31 154.768 149.809 150.865L139.824 142.214C137.99 140.621 136.316 138.565 134.995 136.268L127.628 123.51C123.83 116.94 118.588 111.401 113.24 108.319L95.2217 97.9146C92.622 96.4079 90.0903 96.1485 88.281 97.1921L77.1042 103.645C76.4373 104.028 76.0607 104.898 76.0607 106.029V125.381C76.0607 126.585 76.9128 128.055 77.9564 128.666L80.5746 130.179C80.6919 127.166 81.7972 124.918 83.7238 123.806C85.7616 122.633 88.4477 122.886 91.2882 124.523C96.9754 127.808 101.613 135.78 101.699 142.368L126.727 156.812C126.844 153.798 127.949 151.544 129.876 150.439C131.914 149.266 134.6 149.519 137.44 151.162C143.121 154.453 147.759 162.425 147.839 169.014Z" fill="black"/>
<path d="M191.027 126.95L181.042 118.298C179.239 116.736 177.59 114.711 176.281 112.432L168.914 99.6747C165.067 93.0118 159.849 87.5037 154.409 84.373L140.639 76.4196C135.199 73.2765 129.987 72.764 126.14 74.987L85.1873 98.6311C89.0282 96.4513 94.2152 96.9762 99.6245 100.101L113.401 108.054C118.841 111.197 124.053 116.699 127.906 123.356L135.273 136.113C136.588 138.392 138.237 140.417 140.034 141.98L150.019 150.631C154.582 154.583 157.787 161.165 157.787 166.599V172.743C157.787 173.355 157.589 173.787 157.256 174.022C157.262 174.015 157.268 174.015 157.274 174.009L198.085 150.446C198.517 150.26 198.789 149.779 198.789 149.068V142.924C198.795 137.497 195.59 130.908 191.027 126.95Z" fill="#86BFF2"/>
<path d="M157.25 174.337C157.157 174.337 157.071 174.299 157.009 174.225C156.904 174.102 156.916 173.917 157.034 173.805C157.046 173.793 157.058 173.787 157.071 173.775C157.33 173.589 157.466 173.237 157.466 172.756V166.612C157.466 161.252 154.317 154.78 149.809 150.878L139.824 142.227C137.996 140.633 136.323 138.577 134.995 136.28L127.628 123.522C123.781 116.866 118.668 111.469 113.24 108.332L99.464 100.379C94.1165 97.291 89.0962 96.7723 85.3356 98.9089C85.1874 98.9953 84.996 98.9459 84.9096 98.7916C84.8231 98.6434 84.8725 98.4519 85.0269 98.3655L125.979 74.7214C129.956 72.4243 135.217 72.9368 140.793 76.154L154.57 84.1074C160.09 87.2875 165.277 92.7648 169.186 99.5264L176.553 112.284C177.843 114.525 179.467 116.526 181.246 118.07L191.231 126.721C195.868 130.747 199.104 137.41 199.098 142.924V149.068C199.098 149.884 198.77 150.489 198.202 150.736L157.435 174.275L157.429 174.281C157.373 174.318 157.311 174.337 157.25 174.337ZM90.4671 96.9885C93.3323 96.9885 96.5 97.9456 99.779 99.8351L113.555 107.789C119.082 110.981 124.269 116.452 128.172 123.208L135.538 135.965C136.835 138.2 138.453 140.201 140.231 141.751L150.216 150.402C154.854 154.416 158.089 161.079 158.089 166.605V172.75C158.089 172.91 158.077 173.058 158.052 173.2L197.924 150.18C198.289 150.019 198.474 149.624 198.474 149.068V142.924C198.48 137.577 195.331 131.105 190.823 127.19L180.838 118.539C179.004 116.946 177.331 114.89 176.009 112.593L168.643 99.8351C164.845 93.2649 159.602 87.726 154.255 84.6446L140.478 76.6912C135.106 73.5852 130.067 73.0789 126.288 75.2586L88.3305 97.1737C89.0221 97.0502 89.7322 96.9885 90.4671 96.9885Z" fill="black"/>
<path d="M165.469 158.837C166.883 158.022 168.031 158.677 168.031 160.319C168.031 161.949 166.883 163.944 165.469 164.759C164.048 165.574 162.906 164.92 162.906 163.277C162.912 161.641 164.055 159.659 165.469 158.837ZM191.107 144.042C192.521 143.227 193.67 143.881 193.67 145.524C193.67 147.167 192.521 149.149 191.107 149.964C189.693 150.779 188.538 150.124 188.538 148.482C188.538 146.845 189.693 144.857 191.107 144.042Z" fill="white"/>
<path d="M164.32 165.42C164.024 165.42 163.746 165.346 163.499 165.204C162.918 164.864 162.597 164.178 162.597 163.271C162.603 161.517 163.801 159.448 165.314 158.565C166.098 158.108 166.852 158.047 167.438 158.386C168.025 158.726 168.346 159.411 168.346 160.319C168.346 162.054 167.124 164.166 165.623 165.024C165.172 165.29 164.728 165.42 164.32 165.42ZM165.623 159.103C164.302 159.875 163.221 161.746 163.215 163.271C163.215 163.944 163.425 164.438 163.808 164.66C164.19 164.882 164.728 164.815 165.314 164.481C166.642 163.715 167.723 161.844 167.723 160.313C167.723 159.64 167.513 159.146 167.13 158.924C166.747 158.707 166.21 158.769 165.623 159.103ZM189.959 150.624C189.662 150.624 189.384 150.55 189.137 150.408C188.551 150.069 188.23 149.383 188.23 148.475C188.23 146.746 189.452 144.635 190.953 143.77C191.737 143.319 192.49 143.251 193.077 143.591C193.664 143.931 193.985 144.616 193.985 145.524C193.985 147.284 192.787 149.352 191.262 150.229C190.805 150.489 190.366 150.624 189.959 150.624ZM192.25 143.999C191.953 143.999 191.62 144.104 191.262 144.307C189.934 145.073 188.853 146.944 188.853 148.475C188.853 149.149 189.063 149.643 189.452 149.865C189.835 150.087 190.372 150.025 190.953 149.686C192.28 148.92 193.361 147.049 193.361 145.518C193.361 144.845 193.151 144.351 192.768 144.128C192.614 144.042 192.441 143.999 192.25 143.999Z" fill="black"/>
<path d="M162.961 96.0868L127.109 116.785C128.32 118.403 129.437 120.114 130.462 121.88L137.829 134.637C138.008 134.94 138.187 135.242 138.379 135.545L174.262 114.828C174.076 114.532 173.891 114.229 173.712 113.92L166.345 101.163C165.333 99.3966 164.203 97.7046 162.961 96.0868Z" fill="black"/>
<path d="M153.174 101.737L153.878 98.6493L156.138 100.026L154.656 102.762L153.174 101.737Z" fill="#C88BC4"/>
<path d="M150.216 103.441L148.395 102.762L147.265 105.152L148.741 106.325L150.216 103.441Z" fill="#C88BC4"/>
<path d="M144.301 106.856H140.17L138.379 110.277L140.515 111.537L144.301 106.856Z" fill="#C88BC4"/>
<path d="M138.379 135.539L140.923 136.348L144.301 132.124H140.238L138.379 135.539Z" fill="#C88BC4"/>
<path d="M147.265 130.414L148.741 131.55L150.216 128.709L148.327 128.259L147.265 130.414Z" fill="#C88BC4"/>
<path d="M153.174 126.999L154.656 127.919L156.138 125.288L154.656 124.763L153.174 126.999Z" fill="#C88BC4"/>
<path d="M147.265 130.414L150.223 128.703V103.441L147.265 105.152V130.414Z" fill="#D1AAD7"/>
<path d="M144.301 106.856L138.379 110.271V135.533L144.301 132.118V106.856Z" fill="#7B8FDD"/>
<path d="M153.174 126.999L156.138 125.288V100.026L153.174 101.737V126.999Z" fill="white"/>
<path d="M138.379 135.86C138.274 135.86 138.175 135.811 138.113 135.718C137.928 135.422 137.749 135.125 137.576 134.829L130.191 122.041C129.147 120.244 128.023 118.539 126.856 116.977C126.801 116.903 126.782 116.817 126.801 116.73C126.819 116.644 126.875 116.57 126.949 116.526L162.801 95.8277C162.937 95.7474 163.11 95.7845 163.202 95.908C164.45 97.5258 165.598 99.2486 166.617 101.021L173.984 113.778C174.163 114.081 174.342 114.384 174.527 114.674C174.57 114.748 174.589 114.834 174.564 114.915C174.54 114.995 174.49 115.069 174.416 115.106L138.533 135.823C138.484 135.848 138.434 135.86 138.379 135.86ZM127.566 116.878C128.672 118.385 129.74 120.015 130.734 121.726L138.101 134.483C138.231 134.705 138.36 134.915 138.484 135.125L173.829 114.717C173.7 114.507 173.57 114.291 173.447 114.075L166.08 101.323C165.123 99.65 164.048 98.0322 162.881 96.4946L127.566 116.878Z" fill="black"/>
<path d="M123.516 147.445C123.516 149.186 122.293 149.896 120.78 149.025L113.722 144.95C105.015 139.923 97.9573 127.697 97.9573 117.638L97.9635 117.644V107.042C97.9635 105.3 99.1862 104.59 100.699 105.461L113.395 112.79C115.562 114.038 117.674 115.748 119.675 117.86C119.687 117.872 119.7 117.885 119.718 117.903C122.027 120.355 123.509 123.844 123.509 126.74V147.445H123.516Z" fill="#7B8FDD"/>
<path d="M122.003 149.704C121.571 149.704 121.101 149.562 120.626 149.291L113.568 145.215C104.793 140.145 97.6486 127.777 97.6486 117.638C97.6486 117.613 97.6486 117.594 97.6547 117.57V107.035C97.6547 106.078 97.9944 105.355 98.6119 104.997C99.2294 104.639 100.026 104.707 100.86 105.189L113.555 112.525C115.747 113.791 117.884 115.513 119.903 117.65C122.299 120.188 123.824 123.738 123.824 126.739V147.376C123.831 147.395 123.831 147.42 123.831 147.438C123.831 148.395 123.491 149.118 122.873 149.476C122.608 149.63 122.318 149.704 122.003 149.704ZM98.2661 117.705C98.2969 127.629 105.287 139.713 113.876 144.672L120.934 148.747C121.564 149.112 122.145 149.179 122.559 148.939C122.96 148.704 123.188 148.198 123.201 147.5C123.195 147.481 123.195 147.457 123.195 147.438V126.733C123.195 123.88 121.737 120.497 119.483 118.113C117.464 115.983 115.377 114.291 113.234 113.056L100.538 105.72C99.9086 105.355 99.3282 105.288 98.9144 105.528C98.5007 105.769 98.2722 106.3 98.2722 107.029V117.631C98.2722 117.662 98.2722 117.687 98.2661 117.705Z" fill="black"/>
<path d="M26.1914 67.5769L68.9162 92.2399V84.3482L26.1914 59.6853V67.5769Z" fill="black"/>
<path d="M68.9162 92.5484C68.8606 92.5484 68.8112 92.5361 68.7618 92.5052L26.037 67.8484C25.9382 67.7928 25.8826 67.6878 25.8826 67.5767V59.685C25.8826 59.5739 25.9444 59.4689 26.037 59.4133C26.1358 59.3577 26.2531 59.3577 26.3458 59.4133L69.0706 84.0825C69.1694 84.1381 69.225 84.2431 69.225 84.3542V92.2397C69.225 92.3508 69.1632 92.4558 69.0706 92.5114C69.0274 92.5361 68.9718 92.5484 68.9162 92.5484ZM26.5063 67.3976L68.6075 91.7025V84.5333L26.5063 60.2222V67.3976Z" fill="black"/>
<path d="M92.8444 70.5346L68.9162 84.3481L26.1914 59.6852L50.1195 45.8717L92.8444 70.5346Z" fill="white"/>
<path d="M68.9162 84.6632C68.8606 84.6632 68.8112 84.6509 68.7618 84.62L26.037 59.9509C25.9382 59.8953 25.8826 59.7903 25.8826 59.6792C25.8826 59.568 25.9444 59.463 26.037 59.4075L49.9651 45.594C50.0639 45.5384 50.1813 45.5384 50.2739 45.594L92.9987 70.2631C93.0975 70.3187 93.1531 70.4237 93.1531 70.5348C93.1531 70.646 93.0913 70.7509 92.9987 70.8065L69.0706 84.62C69.0274 84.6509 68.9718 84.6632 68.9162 84.6632ZM26.8151 59.6853L68.9162 83.9963L92.2207 70.541L50.1195 46.23L26.8151 59.6853Z" fill="black"/>
<path d="M68.9161 92.2399L92.8443 78.4326V70.5348L68.9161 84.3544V92.2399Z" fill="#7B8FDD"/>
<path d="M68.9162 92.5488C68.8606 92.5488 68.8112 92.5365 68.7618 92.5056C68.663 92.45 68.6074 92.3451 68.6074 92.2339V84.3484C68.6074 84.2373 68.6692 84.1323 68.7618 84.0767L92.69 70.2633C92.7888 70.2077 92.9061 70.2077 92.9987 70.2633C93.0975 70.3188 93.1531 70.4238 93.1531 70.535V78.4328C93.1531 78.5439 93.0914 78.6489 92.9987 78.7045L69.0705 92.5118C69.0211 92.5365 68.9717 92.5488 68.9162 92.5488ZM69.2249 84.5337V91.7029L92.5294 78.2537V71.0784L69.2249 84.5337Z" fill="black"/>
<path d="M80.5128 7.69186C79.4507 18.8069 78.2219 31.7497 77.6291 37.9432L51.2001 53.2016L80.2041 69.942L94.703 61.5749C96.5616 60.5005 97.7102 58.2034 97.7102 54.9368C97.7102 54.4243 97.6855 53.8932 97.6299 53.356C97.6299 53.356 97.3212 49.7436 96.858 44.3034C96.0182 34.5408 94.6844 18.8995 93.7211 7.69804" fill="#7B8FDD"/>
<path d="M80.2043 70.2506C80.1487 70.2506 80.0993 70.2383 80.0499 70.2074L51.0459 53.4731C50.9471 53.4175 50.8915 53.3126 50.8915 53.2014C50.8915 53.0903 50.9533 52.9853 51.0459 52.9297L77.3391 37.7516C77.9319 31.4963 79.1545 18.6832 80.2043 7.66078C80.2228 7.48788 80.371 7.37673 80.5439 7.3829C80.7168 7.40143 80.8403 7.54963 80.8218 7.72253C79.7597 18.8375 78.5308 31.7803 77.938 37.9677C77.9257 38.0665 77.8701 38.1591 77.7837 38.2085L51.824 53.2014L80.2043 69.5775L94.5179 61.3154C94.5303 61.3092 94.5364 61.303 94.5488 61.2968C96.3889 60.2347 97.3955 57.9747 97.3955 54.9304C97.3955 54.4241 97.3708 53.9054 97.3152 53.3867L93.4064 7.72253C93.3941 7.54963 93.5176 7.40143 93.6905 7.38908C93.8572 7.37673 94.0116 7.50023 94.0239 7.67313L97.9327 53.3311C97.9883 53.8683 98.013 54.4055 98.013 54.9366C98.013 58.197 96.9015 60.6423 94.8822 61.8279C94.8699 61.8341 94.8637 61.8402 94.8514 61.8464L80.3525 70.2136C80.3092 70.2383 80.2537 70.2506 80.2043 70.2506Z" fill="black"/>
<path d="M100.674 7.69763L140.256 29.3842L145.381 32.342L152.322 30.045C154.255 30.3105 155.626 28.9458 155.626 26.4202C155.626 23.1475 153.329 19.177 150.5 17.5406C150.155 17.3368 149.79 17.1763 149.407 17.0466L137.428 12.9587L128.326 7.69763" fill="white"/>
<path d="M145.375 32.6511C145.32 32.6511 145.27 32.6387 145.221 32.6079L140.095 29.65L100.52 7.97582C100.372 7.89555 100.316 7.70412 100.396 7.55592C100.477 7.40772 100.668 7.35214 100.816 7.43242L140.398 29.119L145.406 32.0089L152.217 29.755C152.26 29.7427 152.31 29.7365 152.359 29.7427C153.125 29.8476 153.798 29.6748 154.304 29.2302C154.953 28.6621 155.311 27.6679 155.311 26.4267C155.311 23.2651 153.081 19.3995 150.34 17.8187C150.013 17.6273 149.667 17.4729 149.309 17.3494L137.329 13.2616L128.172 7.97582C128.023 7.88937 127.974 7.69795 128.06 7.54975C128.147 7.40155 128.338 7.34597 128.486 7.4386L137.588 12.6997L149.512 16.7628C149.908 16.8987 150.297 17.0716 150.661 17.2815C153.569 18.9611 155.941 23.0675 155.941 26.4267C155.941 27.8716 155.521 29.0017 154.718 29.6995C154.088 30.249 153.273 30.4775 152.353 30.3663L145.48 32.6449C145.443 32.6449 145.412 32.6511 145.375 32.6511Z" fill="black"/>
<path d="M145.375 45.5445L141.96 41.2591L145.375 39.2892L148.796 41.2591V47.5205L154.335 57.1165L149.506 59.9076L147.085 55.7209L143.671 57.6907L136.421 50.713L145.375 45.5445Z" fill="#C88BC4"/>
<path d="M149.506 60.2223C149.401 60.2223 149.296 60.1667 149.235 60.0679L146.968 56.153L143.819 57.9684C143.702 58.0364 143.547 58.0178 143.449 57.9252L136.199 50.9475C136.131 50.8795 136.094 50.7807 136.106 50.6881C136.119 50.5893 136.174 50.5029 136.261 50.4596L144.906 45.4702L141.713 41.4627C141.658 41.3886 141.633 41.3021 141.652 41.2095C141.67 41.123 141.726 41.0428 141.8 40.9995L145.215 39.0297C145.307 38.9741 145.431 38.9741 145.523 39.0297L148.944 40.9995C149.043 41.0551 149.099 41.1601 149.099 41.2712V47.4524L154.594 56.9743C154.681 57.1225 154.631 57.3139 154.483 57.4003L149.654 60.1914C149.611 60.21 149.562 60.2223 149.506 60.2223ZM147.086 55.4182C147.191 55.4182 147.296 55.4737 147.357 55.5725L149.624 59.4875L153.915 57.0051L148.537 47.6747C148.512 47.6253 148.494 47.5759 148.494 47.5203V41.438L145.381 39.6472L142.43 41.3453L145.622 45.3529C145.678 45.427 145.702 45.5135 145.684 45.6061C145.665 45.6925 145.61 45.7728 145.536 45.816L136.934 50.7807L143.72 57.3077L146.937 55.4552C146.981 55.4305 147.03 55.4182 147.086 55.4182Z" fill="black"/>
<path d="M141.96 47.5205V41.2591L145.375 43.2351V49.4903L150.92 59.0925L146.091 61.8774L143.671 57.6907L146.091 56.2952L143.671 52.1085L141.256 53.5041L143.671 57.6907L141.256 59.0925L136.421 50.7192L141.96 47.5205Z" fill="black"/>
<path d="M146.091 62.1925C145.987 62.1925 145.882 62.1369 145.82 62.0381L143.554 58.1232L141.411 59.3643C141.337 59.4076 141.256 59.4137 141.176 59.3952C141.096 59.3767 141.028 59.3211 140.985 59.247L136.15 50.8737C136.107 50.7996 136.1 50.7193 136.119 50.6391C136.137 50.5588 136.193 50.4909 136.261 50.4476L141.645 47.3416V41.2592C141.645 41.1481 141.707 41.0431 141.8 40.9875C141.899 40.932 142.016 40.932 142.109 40.9875L145.523 42.9635C145.622 43.0191 145.678 43.1241 145.678 43.2352V49.4102L151.18 58.9444C151.223 59.0185 151.229 59.0988 151.211 59.1791C151.192 59.2594 151.136 59.3273 151.069 59.3705L146.24 62.1554C146.196 62.1801 146.141 62.1925 146.091 62.1925ZM144.097 57.8082L146.209 61.4515L150.5 58.9753L145.116 49.6387C145.091 49.5893 145.073 49.5399 145.073 49.4843V43.4081L142.282 41.7903V47.5207C142.282 47.6318 142.22 47.7368 142.127 47.7924L136.854 50.8367L141.38 58.6727L143.257 57.5859L140.997 53.671C140.954 53.5969 140.948 53.5166 140.966 53.4363C140.985 53.3561 141.04 53.2881 141.114 53.2449L143.529 51.8555C143.677 51.7691 143.868 51.8185 143.955 51.9667L146.376 56.1533C146.419 56.2274 146.431 56.3077 146.406 56.388C146.388 56.4683 146.332 56.5362 146.258 56.5794L144.097 57.8082ZM141.676 53.6216L143.782 57.2648L145.665 56.1842L143.554 52.541L141.676 53.6216Z" fill="black"/>
<path d="M135.131 38.2643L145.381 44.1861V32.3425L135.131 26.4206V38.2643Z" fill="black"/>
<path d="M145.375 44.4946C145.32 44.4946 145.27 44.4822 145.221 44.4513L134.97 38.5295C134.872 38.4739 134.816 38.369 134.816 38.2578V26.4203C134.816 26.3092 134.878 26.2042 134.97 26.1486C135.069 26.0931 135.186 26.0931 135.279 26.1486L145.53 32.0705C145.628 32.126 145.684 32.231 145.684 32.3422V44.1796C145.684 44.2908 145.622 44.3958 145.53 44.4513C145.486 44.476 145.431 44.4946 145.375 44.4946ZM135.44 38.0787L145.066 43.6424V32.5212L135.44 26.9576V38.0787Z" fill="black"/>
<path d="M155.632 26.4206C155.632 24.7843 155.058 22.975 154.131 21.3695L140.256 29.3846L145.388 32.3425H145.381V44.1799L155.638 38.2581L155.632 26.4206Z" fill="#7B8FDD"/>
<path d="M145.375 44.4949C145.32 44.4949 145.27 44.4826 145.221 44.4517C145.122 44.3961 145.066 44.2911 145.066 44.18V32.5154L140.095 29.6502C139.997 29.5946 139.941 29.4897 139.941 29.3785C139.941 29.2674 140.003 29.1624 140.095 29.1068L153.971 21.0917C154.045 21.0484 154.125 21.0423 154.205 21.0608C154.286 21.0855 154.354 21.1349 154.397 21.209C155.385 22.9195 155.934 24.7596 155.941 26.3836C155.941 26.396 155.941 26.4022 155.941 26.4145V38.252C155.941 38.3631 155.879 38.4681 155.786 38.5237L145.529 44.4455C145.486 44.4764 145.431 44.4949 145.375 44.4949ZM145.69 32.3857V43.6428L155.323 38.0791V26.4516C155.323 26.4392 155.323 26.433 155.323 26.4207C155.323 24.9819 154.86 23.3455 154.014 21.7956L140.874 29.3785L145.536 32.0646C145.628 32.1202 145.69 32.219 145.69 32.324C145.69 32.3487 145.69 32.3672 145.69 32.3857Z" fill="black"/>
<path d="M139.163 34.5343C139.515 34.8307 139.886 35.0839 140.256 35.3C143.09 36.9302 145.381 35.6088 145.381 32.3422C145.381 29.0756 143.084 25.0989 140.256 23.4625C139.91 23.2588 139.546 23.0982 139.163 22.9685L126.986 18.8128C125.788 18.3682 124.88 19.0536 124.88 20.5047C124.88 21.962 125.794 23.6972 126.986 24.6358L139.163 34.5343Z" fill="black"/>
<path d="M142.541 36.319C141.781 36.319 140.954 36.072 140.095 35.578C139.675 35.331 139.299 35.0593 138.959 34.7814L126.782 24.8891C125.498 23.8764 124.559 22.0362 124.559 20.5172C124.559 19.6774 124.843 19.0166 125.356 18.6585C125.819 18.3374 126.436 18.288 127.085 18.535L139.256 22.6908C139.651 22.8266 140.04 22.9995 140.404 23.2095C143.313 24.8891 145.684 28.9954 145.684 32.3546C145.684 34.0466 145.097 35.3248 144.029 35.9361C143.59 36.1893 143.084 36.319 142.541 36.319ZM126.294 18.9981C126.078 18.9981 125.887 19.0537 125.72 19.1648C125.38 19.4057 125.189 19.8811 125.189 20.5172C125.189 21.8386 126.041 23.512 127.177 24.4012L139.354 34.2936C139.354 34.2936 139.354 34.2936 139.361 34.2936C139.669 34.5529 140.021 34.8061 140.41 35.0346C141.676 35.7632 142.856 35.8929 143.72 35.3927C144.585 34.8926 145.06 33.8119 145.06 32.3485C145.06 29.1869 142.831 25.3213 140.089 23.7405C139.762 23.5491 139.416 23.3947 139.058 23.2712L126.887 19.1154C126.671 19.0352 126.473 18.9981 126.294 18.9981Z" fill="black"/>
<path d="M127.437 24.9382V19.0164L107.825 7.69763H97.5684L127.437 24.9382Z" fill="black"/>
<path d="M127.437 25.247C127.381 25.247 127.332 25.2346 127.282 25.2038L97.4138 7.96934C97.2903 7.90141 97.2348 7.75321 97.2718 7.61736C97.3089 7.48151 97.4324 7.38889 97.5744 7.38889H107.831C107.887 7.38889 107.942 7.40124 107.985 7.43211L127.597 18.7509C127.696 18.8065 127.752 18.9114 127.752 19.0226V24.9444C127.752 25.0556 127.69 25.1605 127.597 25.2161C127.548 25.2346 127.492 25.247 127.437 25.247ZM98.7291 8.01256L127.122 24.401V19.2017L107.745 8.01256H98.7291Z" fill="black"/>
<path d="M129.246 25.1174C130.246 24.5369 130.246 22.6659 129.246 20.9369C128.246 19.2017 126.622 18.2693 125.621 18.8436C124.621 19.424 124.621 21.2951 125.621 23.0241C126.622 24.7592 128.246 25.6978 129.246 25.1174Z" fill="black"/>
<path d="M142.059 32.5213C143.059 31.9408 143.059 30.0698 142.059 28.3408C141.059 26.6056 139.435 25.6732 138.434 26.2475C137.434 26.8279 137.434 28.699 138.434 30.428C139.441 32.1631 141.059 33.0956 142.059 32.5213Z" fill="#7B8FDD"/>
<path d="M141.392 33.0027C140.985 33.0027 140.546 32.8731 140.089 32.6075C139.361 32.1876 138.675 31.4652 138.163 30.5821C137.65 29.6991 137.372 28.7482 137.372 27.9022C137.372 26.9945 137.694 26.309 138.28 25.9756C139.447 25.3025 141.226 26.272 142.331 28.1801C142.843 29.0631 143.121 30.014 143.121 30.86C143.121 31.7677 142.8 32.4532 142.214 32.7866C141.967 32.9286 141.689 33.0027 141.392 33.0027ZM139.108 26.3831C138.922 26.3831 138.743 26.4264 138.595 26.5128C138.212 26.7351 138.002 27.2291 138.002 27.9022C138.002 28.637 138.255 29.4768 138.712 30.2734C139.169 31.0638 139.775 31.706 140.411 32.0703C140.997 32.4038 141.528 32.4717 141.911 32.2494C142.294 32.0271 142.504 31.5331 142.504 30.86C142.504 30.1252 142.251 29.2854 141.794 28.4888C141.059 27.2229 139.947 26.3831 139.108 26.3831Z" fill="black"/>
<path d="M39.9185 59.7098L68.9163 42.9632L83.4153 68.0831L68.9163 76.4503L39.9185 59.7098Z" fill="black"/>
<path d="M68.9164 76.7653C68.8608 76.7653 68.8114 76.7529 68.762 76.7221L39.7642 59.9816C39.6654 59.9261 39.6098 59.8211 39.6098 59.7099C39.6098 59.5988 39.6716 59.4938 39.7642 59.4382L68.762 42.6916C68.8361 42.6484 68.9164 42.6422 68.9966 42.6608C69.0769 42.6855 69.1448 42.7349 69.1881 42.809L83.687 67.9289C83.7302 68.003 83.7364 68.0832 83.7179 68.1635C83.6994 68.2438 83.6438 68.3117 83.5759 68.3488L69.0707 76.7282C69.0213 76.7529 68.9719 76.7653 68.9164 76.7653ZM40.5422 59.7099L68.9164 76.0984L82.9954 67.9721L68.8052 43.3894L40.5422 59.7099Z" fill="black"/>
<path d="M83.4153 68.0829C87.4167 65.7735 87.4167 58.2771 83.4091 51.3425C79.4077 44.408 72.9116 40.6598 68.9102 42.9692C64.9088 45.2787 64.9088 52.7751 68.9164 59.7096C72.9239 66.6442 79.4139 70.3986 83.4153 68.0829Z" fill="#7B8FDD"/>
<path d="M69.8425 7.69763C68.3419 23.4686 66.0015 48.1315 66.0015 48.1315C65.946 48.6008 65.9213 49.0948 65.9213 49.6073C65.9213 56.1467 70.5094 64.0939 76.1781 67.3667C81.8467 70.6394 86.4347 67.9842 86.4347 61.4448C86.4347 60.9323 86.41 60.4013 86.3545 59.864C86.3545 59.864 83.2237 23.3204 81.8899 7.69763" fill="black"/>
<path d="M80.7538 69.0833C79.2965 69.0833 77.6848 68.5955 76.0176 67.6383C70.2748 64.3224 65.6065 56.2331 65.6065 49.6073C65.6065 49.0825 65.6374 48.5699 65.693 48.0945C65.693 48.0945 68.0333 23.4377 69.5338 7.66675C69.5523 7.49385 69.7005 7.37653 69.8734 7.38888C70.0463 7.4074 70.1698 7.5556 70.1513 7.7285C68.6508 23.4994 66.3105 48.1624 66.3105 48.1624C66.2549 48.6193 66.2302 49.1072 66.2302 49.6073C66.2302 56.0355 70.7626 63.8839 76.3325 67.0949C78.9692 68.6202 81.4392 68.8733 83.2732 67.8112C85.1072 66.7491 86.1199 64.4891 86.1199 61.4386C86.1199 60.9323 86.0952 60.4136 86.0396 59.8949L81.5751 7.72233C81.5627 7.54943 81.6862 7.40123 81.8591 7.38888C82.0258 7.37036 82.1802 7.50003 82.1926 7.67293L86.6571 59.8455C86.7127 60.3827 86.7374 60.9199 86.7374 61.451C86.7374 64.7299 85.6135 67.1814 83.5758 68.3608C82.736 68.8425 81.785 69.0833 80.7538 69.0833Z" fill="black"/>
<path d="M83.4153 68.0829C87.4167 65.7735 87.4167 58.2771 83.4091 51.3425C79.4077 44.408 72.9116 40.6598 68.9102 42.9692C64.9088 45.2787 64.9088 52.7751 68.9164 59.7096C72.9239 66.6442 79.4139 70.3986 83.4153 68.0829Z" fill="black"/>
<path d="M81.0007 63.8967C83.6683 62.353 83.6745 57.3574 81.0007 52.7323C78.3331 48.1072 74.0045 45.6125 71.3307 47.1563C68.6632 48.7 68.657 53.6956 71.3307 58.3207C73.9983 62.9396 78.327 65.4405 81.0007 63.8967Z" fill="#7B8FDD"/>
<path d="M79.2161 64.6685C78.2281 64.6685 77.1351 64.3412 76.0051 63.6928C74.1341 62.6122 72.3742 60.7597 71.0589 58.4749C68.3111 53.714 68.3605 48.5147 71.1763 46.8906C73.9921 45.2666 78.5183 47.8169 81.2724 52.584C84.0203 57.3449 83.9709 62.5443 81.1551 64.1683C80.5746 64.5017 79.9201 64.6685 79.2161 64.6685ZM73.1276 47.008C72.5348 47.008 71.979 47.1438 71.4912 47.4279C68.9718 48.879 69.0212 53.7017 71.6023 58.1662C72.8682 60.3583 74.5416 62.1244 76.32 63.1556C78.049 64.1559 79.6545 64.3227 80.8463 63.6311C83.3657 62.1799 83.3163 57.3573 80.7352 52.8927C78.6604 49.2989 75.5667 47.008 73.1276 47.008Z" fill="black"/>
<path d="M78.5863 59.7161C79.9201 58.9442 79.9201 56.4433 78.5863 54.1339C77.2525 51.8183 75.0851 50.5709 73.7513 51.3428C72.4175 52.1147 72.4175 54.6155 73.7513 56.925C75.0851 59.2344 77.2463 60.488 78.5863 59.7161Z" fill="#D1AAD7"/>
<path d="M77.6849 60.2597C76.2894 60.2597 74.6159 59.0494 73.4797 57.0796C72.8067 55.9125 72.4362 54.6652 72.4362 53.5537C72.4362 52.3804 72.8499 51.5036 73.5909 51.0713C74.3381 50.6391 75.3075 50.7255 76.3202 51.3121C77.2774 51.8679 78.1789 52.8127 78.852 53.9797C79.5251 55.1468 79.8956 56.3942 79.8956 57.5057C79.8956 58.6789 79.488 59.5558 78.7408 59.988C78.4197 60.1671 78.0616 60.2597 77.6849 60.2597ZM74.6406 51.4233C74.3689 51.4233 74.1219 51.485 73.9058 51.6085C73.3624 51.9235 73.0598 52.6151 73.0598 53.5537C73.0598 54.554 73.3995 55.6964 74.017 56.7708C75.2458 58.895 77.265 60.1177 78.4259 59.4508C78.9693 59.1359 79.2719 58.4443 79.2719 57.5057C79.2719 56.5053 78.9323 55.3629 78.3086 54.2885C77.6911 53.214 76.8698 52.3495 76.0053 51.8494C75.5175 51.5653 75.0544 51.4233 74.6406 51.4233Z" fill="black"/>
<path d="M51.5954 128.611L13.3722 106.541L5.83868 100.416V119.953L43.8767 141.912V144.876L64.3777 156.713L74.6344 150.791V138.954L54.1334 127.116L51.5954 128.611Z" fill="#7B8FDD"/>
<path d="M64.3838 157.028C64.3283 157.028 64.2789 157.016 64.2295 156.985L43.7223 145.147C43.6235 145.092 43.5679 144.987 43.5679 144.876V142.091L5.68428 120.225C5.59166 120.17 5.52991 120.065 5.52991 119.953V100.416C5.52991 100.298 5.59783 100.187 5.70898 100.138C5.81396 100.082 5.94363 100.101 6.03626 100.175L13.5698 106.3L51.5954 128.246L53.979 126.845C54.0778 126.789 54.1951 126.789 54.2939 126.845L74.8011 138.682C74.8999 138.738 74.9554 138.843 74.9554 138.954V150.791C74.9554 150.902 74.8937 151.007 74.8011 151.063L64.5444 156.985C64.4888 157.016 64.4394 157.028 64.3838 157.028ZM44.1916 144.697L64.3838 156.355L74.3256 150.612V139.133L54.1333 127.475L51.7498 128.876C51.651 128.932 51.5337 128.932 51.4349 128.876L13.2116 106.807L6.14741 101.064V119.768L44.031 141.634C44.1298 141.689 44.1854 141.794 44.1854 141.906V144.697H44.1916Z" fill="black"/>
<path d="M74.6405 138.954L54.1334 127.116L51.5954 128.611L13.3722 106.541L13.1622 106.374L5.83868 110.598V119.768L43.8767 139.349V133.038H43.8829L64.3839 144.875L74.6405 138.954Z" fill="white"/>
<path d="M64.3838 145.184C64.3283 145.184 64.2789 145.172 64.2295 145.141L44.1916 133.569V139.343C44.1916 139.454 44.136 139.553 44.0434 139.608C43.9508 139.664 43.8334 139.67 43.7408 139.621L5.70281 120.04C5.59783 119.99 5.52991 119.885 5.52991 119.768V110.598C5.52991 110.487 5.59166 110.382 5.68428 110.326L13.0017 106.103C13.1128 106.041 13.2487 106.047 13.3536 106.127L13.5636 106.3L51.5892 128.252L53.9728 126.851C54.0716 126.795 54.1889 126.795 54.2877 126.851L74.7949 138.688C74.8937 138.744 74.9493 138.849 74.9493 138.96C74.9493 139.071 74.8875 139.176 74.7949 139.232L64.5382 145.153C64.4888 145.172 64.4394 145.184 64.3838 145.184ZM43.8828 132.723C43.9384 132.723 43.9878 132.735 44.0372 132.766L64.3838 144.517L74.0168 138.96L54.1333 127.481L51.7498 128.882C51.651 128.938 51.5337 128.938 51.4349 128.882L13.2116 106.813L13.1252 106.745L6.14123 110.777V119.583L43.5556 138.843V133.044C43.5556 132.927 43.6235 132.822 43.7285 132.766C43.784 132.735 43.8334 132.723 43.8828 132.723Z" fill="black"/>
<path d="M5.83868 119.953L43.8767 141.912V135.99L5.83868 114.031V119.953Z" fill="black"/>
<path d="M43.8767 142.221C43.8211 142.221 43.7717 142.208 43.7223 142.177L5.68428 120.219C5.59166 120.17 5.52991 120.065 5.52991 119.953V114.032C5.52991 113.92 5.59166 113.816 5.68428 113.76C5.78308 113.704 5.90041 113.704 5.99303 113.76L44.031 135.718C44.1298 135.774 44.1854 135.879 44.1854 135.99V141.912C44.1854 142.023 44.1237 142.128 44.031 142.183C43.9878 142.208 43.9322 142.221 43.8767 142.221ZM6.15358 119.774L43.5679 141.375V136.175L6.15358 114.575V119.774Z" fill="black"/>
<path d="M43.8768 133.038V144.876L64.384 156.713V144.876L43.8768 133.038Z" fill="black"/>
<path d="M64.384 157.028C64.3284 157.028 64.279 157.016 64.2296 156.985L43.7224 145.147C43.6236 145.092 43.5681 144.987 43.5681 144.876V133.038C43.5681 132.927 43.6298 132.822 43.7224 132.766C43.8212 132.711 43.9386 132.711 44.0312 132.766L64.5384 144.604C64.6372 144.659 64.6927 144.764 64.6927 144.876V156.713C64.6927 156.824 64.631 156.929 64.5384 156.985C64.489 157.016 64.4396 157.028 64.384 157.028ZM44.1917 144.696L64.0752 156.176V145.055L44.1917 133.575V144.696Z" fill="black"/>
<path d="M36.5902 160.924L26.3336 166.846L35.0527 181.944H48.7241L36.5902 160.924Z" fill="#7B8FDD"/>
<path d="M48.7299 182.253H35.0585C34.9473 182.253 34.8424 182.191 34.7868 182.098L26.0677 167C26.0245 166.926 26.0183 166.846 26.0368 166.766C26.0553 166.685 26.1109 166.618 26.1788 166.58L36.4355 160.659C36.5837 160.572 36.7751 160.622 36.8616 160.77L48.9955 181.79C49.051 181.888 49.051 182.006 48.9955 182.098C48.9399 182.191 48.8411 182.253 48.7299 182.253ZM35.2376 181.629H48.1927L36.4849 161.344L26.7655 166.951L35.2376 181.629Z" fill="black"/>
<path d="M26.3398 166.84L11.8409 175.207L15.7312 181.938H35.0651C35.0589 181.938 26.3398 166.84 26.3398 166.84Z" fill="black"/>
<path d="M35.0588 182.253H15.7249C15.6137 182.253 15.5087 182.191 15.4532 182.098L11.5629 175.368C11.5197 175.293 11.5135 175.213 11.5321 175.133C11.5506 175.053 11.6062 174.985 11.6741 174.941L26.173 166.574C26.3212 166.488 26.5126 166.537 26.599 166.685L35.3181 181.783C35.3737 181.882 35.3737 181.999 35.3181 182.092C35.2687 182.191 35.1699 182.253 35.0588 182.253ZM15.9039 181.629H34.5154L26.2224 167.266L12.2607 175.324L15.9039 181.629Z" fill="black"/>
<path d="M11.8344 158.473C7.82678 160.782 7.82678 168.285 11.8344 175.22C13.4831 178.072 15.5517 180.37 17.6944 181.95H28.0437C30.2112 178.696 29.6431 172.589 26.3333 166.852C22.338 159.906 15.8419 156.163 11.8344 158.473Z" fill="#7B8FDD"/>
<path d="M67.5454 158.004C66.6747 156.497 65.52 155.355 64.3838 154.737V156.713C65.0816 157.077 65.7979 157.775 66.3413 158.701C67.3417 160.437 67.3417 162.308 66.3413 162.888C65.804 163.197 65.0939 163.073 64.3838 162.623L49.2736 153.897V155.873L64.3838 164.599C65.52 165.296 66.6747 165.482 67.5454 164.981C69.2126 164.024 69.2126 160.894 67.5454 158.004Z" fill="black"/>
<path d="M66.4401 165.574C65.7485 165.574 64.989 165.334 64.2233 164.864L49.1192 156.145C49.0204 156.09 48.9648 155.985 48.9648 155.873V153.897C48.9648 153.786 49.0266 153.681 49.1192 153.626C49.218 153.57 49.3353 153.57 49.428 153.626L64.5382 162.351C65.1804 162.759 65.7732 162.857 66.1807 162.617C66.5636 162.394 66.7735 161.9 66.7735 161.227C66.7735 160.492 66.5204 159.646 66.0634 158.856C65.5694 158.016 64.9025 157.337 64.2356 156.985C64.1306 156.929 64.069 156.824 64.069 156.707V154.731C64.069 154.62 64.1245 154.521 64.2233 154.466C64.316 154.41 64.4333 154.41 64.5321 154.459C65.7794 155.139 66.9465 156.337 67.8172 157.843C68.6508 159.288 69.1077 160.838 69.1077 162.209C69.1077 163.642 68.6075 164.722 67.6998 165.247C67.3293 165.469 66.897 165.574 66.4401 165.574ZM49.5823 155.694L64.5382 164.333C65.6188 165 66.6562 165.136 67.391 164.716C68.095 164.308 68.484 163.425 68.484 162.221C68.484 160.955 68.0579 159.517 67.2737 158.164C66.5821 156.966 65.662 155.948 64.6926 155.293V156.534C65.415 156.954 66.0882 157.664 66.6069 158.547C67.1194 159.436 67.4034 160.387 67.4034 161.233C67.4034 162.141 67.0824 162.826 66.4957 163.16C65.8782 163.518 65.0445 163.413 64.2171 162.882L49.5823 154.435V155.694Z" fill="black"/>
<path d="M50.8358 144.363C50.7987 144.375 12.841 158.035 12.841 158.035C12.4952 158.146 12.1617 158.288 11.8468 158.473C7.83923 160.782 7.83923 168.285 11.8468 175.22C13.4955 178.072 15.5642 180.369 17.7069 181.95H28.4082C34.0521 177.177 58.0482 156.892 58.0605 156.886C59.7648 155.54 59.6598 152.002 57.7641 148.716C55.8622 145.419 52.8426 143.56 50.8358 144.363Z" fill="black"/>
<path d="M28.402 182.259H17.7007C17.6328 182.259 17.571 182.24 17.5155 182.197C15.2307 180.511 13.1744 178.153 11.5751 175.374C9.61145 171.971 8.53082 168.328 8.53082 165.111C8.53082 161.832 9.65467 159.381 11.6924 158.201C12.0073 158.016 12.3655 157.855 12.7483 157.738C13.1127 157.608 50.2924 144.233 50.7308 144.073C52.9229 143.202 56.0598 145.129 58.042 148.556C60.0118 151.983 60.1106 155.663 58.2581 157.127C58.0543 157.293 34.4967 177.208 28.6119 182.185C28.5502 182.228 28.4761 182.259 28.402 182.259ZM17.8057 181.635H28.2908C41.7956 170.218 57.8567 156.633 57.9185 156.608C59.4499 155.391 59.2893 151.977 57.4986 148.871C55.7017 145.758 52.8241 143.9 50.9531 144.653C50.916 144.666 24.3635 154.218 12.9521 158.331C12.6063 158.442 12.2914 158.584 12.0073 158.745C10.1672 159.807 9.1545 162.067 9.1545 165.117C9.1545 168.229 10.2042 171.761 12.1185 175.065C13.6561 177.733 15.6197 180.005 17.8057 181.635Z" fill="black"/>
<path d="M11.8344 158.473C7.82678 160.782 7.82678 168.285 11.8344 175.22C13.4831 178.072 15.5517 180.37 17.6944 181.95H28.0437C30.2112 178.696 29.6431 172.589 26.3333 166.852C22.338 159.906 15.8419 156.163 11.8344 158.473Z" fill="black"/>
<path d="M23.9189 179.394C26.5865 177.85 26.5927 172.854 23.9189 168.229C21.2513 163.604 16.9226 161.109 14.2489 162.653C11.5813 164.197 11.5751 169.193 14.2489 173.818C16.9226 178.443 21.2513 180.937 23.9189 179.394Z" fill="#7B8FDD"/>
<path d="M22.1652 180.154C19.4853 180.154 16.1693 177.764 13.9833 173.972C11.2354 169.211 11.2848 164.012 14.1006 162.388C16.9165 160.764 21.4427 163.314 24.1968 168.081C26.9447 172.842 26.8953 178.042 24.0795 179.666C23.499 179.993 22.8506 180.154 22.1652 180.154ZM16.0458 162.505C15.453 162.505 14.8972 162.641 14.4094 162.925C11.89 164.376 11.9394 169.199 14.5206 173.664C17.1017 178.128 21.2451 180.58 23.7645 179.128C26.2839 177.677 26.2345 172.855 23.6534 168.39C21.5786 164.796 18.4849 162.505 16.0458 162.505Z" fill="black"/>
<path d="M21.5047 175.213C22.8385 174.441 22.8385 171.94 21.5047 169.631C20.1709 167.315 18.0035 166.068 16.6697 166.84C15.3359 167.612 15.3359 170.112 16.6697 172.422C18.0035 174.731 20.1709 175.985 21.5047 175.213Z" fill="#D1AAD7"/>
<path d="M20.6091 175.75C19.2136 175.75 17.5401 174.54 16.3978 172.57C14.9528 170.069 15.0022 167.433 16.5089 166.562C18.0156 165.691 20.3251 166.97 21.77 169.47C23.215 171.971 23.1656 174.608 21.6589 175.479C21.3378 175.664 20.9858 175.75 20.6091 175.75ZM17.5525 166.92C17.287 166.92 17.04 166.982 16.8238 167.105C15.6568 167.779 15.7123 170.137 16.935 172.262C18.1576 174.386 20.183 175.615 21.3439 174.942C22.511 174.268 22.4554 171.903 21.2328 169.779C20.2386 168.056 18.7134 166.92 17.5525 166.92Z" fill="black"/>
<path d="M55.9427 153.928C56.943 153.348 56.943 151.477 55.9427 149.748C54.9423 148.012 53.3183 147.08 52.318 147.654C51.3176 148.235 51.3176 150.106 52.318 151.835C53.3183 153.564 54.9423 154.509 55.9427 153.928Z" fill="#7B8FDD"/>
<path d="M55.2756 154.41C54.8681 154.41 54.4297 154.28 53.9727 154.014C53.2441 153.594 52.5587 152.872 52.0461 151.989C50.9408 150.081 50.9964 148.055 52.1634 147.382C53.3305 146.709 55.1089 147.679 56.2143 149.587C56.7268 150.47 57.0046 151.421 57.0046 152.267C57.0046 153.175 56.6835 153.86 56.0969 154.193C55.8499 154.342 55.572 154.41 55.2756 154.41ZM52.9909 147.796C52.8057 147.796 52.6327 147.839 52.4784 147.926C51.6447 148.407 51.6941 150.13 52.5895 151.686C53.0465 152.477 53.6516 153.119 54.2876 153.483C54.8743 153.823 55.4053 153.885 55.7882 153.662C56.171 153.44 56.381 152.946 56.381 152.273C56.381 151.538 56.1278 150.698 55.6708 149.902C54.9422 148.63 53.8307 147.796 52.9909 147.796Z" fill="black"/>
<path d="M43.883 133.347C43.778 133.347 43.673 133.291 43.6113 133.192C43.5248 133.044 43.5742 132.853 43.7286 132.766L51.4474 128.339C51.5956 128.252 51.787 128.302 51.8734 128.456C51.9599 128.604 51.9105 128.796 51.7561 128.882L44.0374 133.31C43.988 133.334 43.9324 133.347 43.883 133.347Z" fill="black"/>
</g>
<defs>
<clipPath id="clip0">
<rect width="247" height="171.048" fill="white" transform="translate(8 8)"/>
</clipPath>
</defs>
</svg>
