<svg width="280" height="199" viewBox="0 0 280 199" fill="none" xmlns="http://www.w3.org/2000/svg">
<path d="M0 8C0 3.58172 3.58172 0 8 0H271.877C276.295 0 279.877 3.58172 279.877 8V191C279.877 195.418 276.295 199 271.877 199H8.00001C3.58173 199 0 195.418 0 191V8Z" fill="white"/>
<mask id="mask0" mask-type="alpha" maskUnits="userSpaceOnUse" x="8" y="8" width="264" height="183">
<rect x="8.51367" y="8.51318" width="262.85" height="181.973" fill="#C4C4C4"/>
</mask>
<g mask="url(#mask0)">
<g clip-path="url(#clip0)">
<path d="M271.364 8.51367H8.51367V190.537H271.364V8.51367Z" fill="white"/>
<path d="M268.236 216.54H12.9298C10.321 216.54 8.20508 214.424 8.20508 211.815V13.2384C8.20508 10.6296 10.321 8.51367 12.9298 8.51367H272.961V211.815C272.961 214.424 270.845 216.54 268.236 216.54Z" fill="#6079DA"/>
<path d="M156.276 8.51367H8.19922V94.0057L156.276 8.51367Z" fill="#7B8FDD"/>
<path d="M396.928 169.214C397.98 168.603 398.913 167.88 399.682 167.045C402.586 163.871 401.357 159.948 396.961 157.412L188.107 36.8357C182.456 33.5698 173.289 33.5698 167.638 36.8357L-118.974 202.307C-124.626 205.573 -124.626 210.862 -118.974 214.128L89.847 334.691C95.4982 337.957 104.665 337.957 110.316 334.691L396.928 169.214Z" fill="black"/>
<path d="M100.078 337.471C96.313 337.471 92.5411 336.643 89.6695 334.987L-119.145 214.425C-121.991 212.782 -123.555 210.58 -123.555 208.221C-123.555 205.862 -121.991 203.661 -119.145 202.018L167.467 36.5406C173.203 33.2287 182.541 33.2287 188.278 36.5406L397.125 157.117C399.649 158.575 401.213 160.514 401.535 162.577C401.791 164.227 401.233 165.85 399.931 167.276C399.163 168.117 398.21 168.866 397.099 169.51L110.487 334.987C107.616 336.643 103.85 337.471 100.078 337.471ZM177.875 34.7269C174.228 34.7269 170.581 35.5286 167.808 37.132L-118.804 202.603C-121.426 204.121 -122.871 206.112 -122.871 208.221C-122.871 210.324 -121.426 212.322 -118.804 213.84L90.0112 334.403C95.5639 337.609 104.593 337.609 110.146 334.403L396.758 168.919C397.809 168.314 398.709 167.604 399.425 166.816C400.589 165.548 401.081 164.115 400.858 162.676C400.569 160.823 399.123 159.055 396.784 157.701L187.936 37.1254C185.163 35.5286 181.516 34.7269 177.875 34.7269Z" fill="black"/>
<path d="M90.555 332.378L-119.686 211C-124.949 207.965 -124.286 202.655 -118.214 199.152L157.398 40.0229L386.689 172.407L111.077 331.53C105.005 335.039 95.812 335.421 90.555 332.378Z" fill="white"/>
<path d="M99.4667 334.751C96.0628 334.751 92.8166 334.067 90.3918 332.668L-119.849 211.283C-122.248 209.903 -123.568 207.971 -123.568 205.855C-123.568 203.319 -121.676 200.769 -118.377 198.864L157.235 39.7406C157.34 39.6815 157.465 39.6815 157.563 39.7406L386.854 172.119C386.959 172.178 387.018 172.29 387.018 172.408C387.018 172.526 386.953 172.638 386.854 172.697L111.242 331.82C107.878 333.758 103.561 334.751 99.4667 334.751ZM90.7203 332.096C95.8853 335.079 104.941 334.698 110.914 331.248L386.026 172.408L157.399 40.4043L-118.049 199.435C-121.137 201.216 -122.911 203.556 -122.911 205.855C-122.911 207.728 -121.709 209.457 -119.527 210.718L90.7203 332.096Z" fill="black"/>
<path d="M335.54 166.513L167.638 69.5739C161.986 66.308 152.819 66.308 147.168 69.5739C141.517 72.8399 141.517 78.1298 147.168 81.3957L315.038 178.315C321.747 182.186 333.398 181.463 338.26 176.147C341.165 172.973 339.936 169.05 335.54 166.513Z" fill="white"/>
<path d="M325.209 181.108C321.523 181.108 317.81 180.3 314.872 178.605L146.997 81.6786C144.158 80.0358 142.594 77.841 142.594 75.4819C142.594 73.1294 144.158 70.928 146.997 69.2852C152.733 65.9733 162.064 65.9733 167.801 69.2852L335.703 166.224C338.227 167.683 339.791 169.615 340.106 171.679C340.362 173.321 339.804 174.944 338.503 176.37C335.684 179.452 330.473 181.108 325.209 181.108ZM157.399 67.4583C153.752 67.4583 150.105 68.26 147.325 69.8634C144.697 71.3814 143.251 73.379 143.251 75.4885C143.251 77.5978 144.697 79.5955 147.325 81.1135L315.201 178.033C322.101 182.015 333.403 180.977 338.016 175.93C339.179 174.662 339.679 173.229 339.455 171.784C339.166 169.924 337.721 168.156 335.375 166.803L167.473 69.8634C164.693 68.26 161.046 67.4583 157.399 67.4583Z" fill="black"/>
<path d="M120.265 80.4031L321.463 196.563C323.566 197.779 323.303 199.901 320.872 201.301L273.375 228.723C270.943 230.123 267.27 230.28 265.167 229.065L63.9685 112.905C61.8657 111.689 62.1286 109.566 64.5599 108.167L112.057 80.7448C114.488 79.3385 118.162 79.1874 120.265 80.4031Z" fill="black"/>
<path d="M268.729 230.214C267.329 230.214 265.995 229.932 264.997 229.354L63.8044 113.193C62.7793 112.602 62.2207 111.768 62.2207 110.848C62.2207 109.757 63.0158 108.679 64.3958 107.877L111.893 80.4555C114.41 79.0032 118.241 78.8455 120.435 80.1138L321.634 196.274C322.659 196.865 323.218 197.7 323.218 198.62C323.218 199.711 322.423 200.788 321.043 201.59L273.546 229.012C272.166 229.807 270.405 230.214 268.729 230.214ZM116.703 79.9101C115.146 79.9101 113.503 80.2912 112.221 81.0272L64.7244 108.449C63.5547 109.126 62.8778 110 62.8778 110.848C62.8778 111.524 63.3247 112.155 64.1329 112.622L265.332 228.782C267.342 229.945 270.878 229.787 273.211 228.44L320.708 201.018C321.877 200.341 322.554 199.467 322.554 198.62C322.554 197.943 322.107 197.312 321.299 196.846L120.1 80.6855C119.193 80.1663 117.978 79.9101 116.703 79.9101Z" fill="black"/>
<path d="M120.265 77.6829L321.463 193.843C323.566 195.059 323.303 197.181 320.872 198.581L273.375 226.003C270.943 227.402 267.27 227.56 265.167 226.344L63.9685 110.184C61.8657 108.969 62.1286 106.846 64.5599 105.446L112.057 78.0246C114.488 76.6183 118.162 76.4672 120.265 77.6829Z" fill="#EDF2F7"/>
<path d="M268.729 227.495C267.329 227.495 265.995 227.212 264.997 226.634L63.8044 110.474C62.7793 109.882 62.2207 109.048 62.2207 108.128C62.2207 107.037 63.0158 105.959 64.3958 105.158L111.893 77.7358C114.41 76.2835 118.241 76.1258 120.435 77.3941L321.628 193.561C322.653 194.152 323.211 194.987 323.211 195.907C323.211 196.998 322.416 198.075 321.036 198.877L273.539 226.299C272.166 227.087 270.405 227.495 268.729 227.495ZM116.703 77.1903C115.146 77.1903 113.503 77.5715 112.221 78.3075L64.7243 105.729C63.5547 106.406 62.8778 107.28 62.8778 108.128C62.8778 108.805 63.3247 109.435 64.1329 109.902L265.332 226.062C267.342 227.219 270.878 227.068 273.211 225.72L320.708 198.299C321.877 197.622 322.554 196.748 322.554 195.9C322.554 195.223 322.107 194.592 321.299 194.126L120.1 77.9723C119.193 77.4466 117.978 77.1903 116.703 77.1903Z" fill="black"/>
<path d="M116.453 128.669L80.627 107.989L116.453 87.3027L152.28 107.989L116.453 128.669Z" fill="#C88BC4"/>
<path d="M116.453 128.669L80.627 107.989H152.28L116.453 128.669Z" fill="#D1AAD7"/>
<path d="M116.335 128.315C115.612 128.315 114.916 128.163 114.383 127.861L82.3681 109.376C81.803 109.048 81.4941 108.581 81.4941 108.062C81.4941 107.457 81.9213 106.866 82.6638 106.432L114.088 88.2891C115.415 87.5203 117.36 87.448 118.523 88.1182L150.538 106.603C151.103 106.932 151.412 107.398 151.412 107.917C151.412 108.522 150.985 109.113 150.243 109.541L118.819 127.684C118.103 128.104 117.196 128.315 116.335 128.315ZM114.718 127.283C115.658 127.828 117.393 127.749 118.49 127.112L149.914 108.969C150.446 108.66 150.755 108.279 150.755 107.917C150.755 107.563 150.459 107.319 150.21 107.175L118.195 88.6899C117.255 88.1445 115.527 88.2234 114.423 88.8608L82.999 107.004C82.4667 107.313 82.1578 107.694 82.1578 108.055C82.1578 108.41 82.4535 108.653 82.7033 108.798L114.718 127.283Z" fill="black"/>
<path d="M299.686 199.001L157.398 116.854L162.517 113.897L304.798 196.044L299.686 199.001Z" fill="#A0AEC0"/>
<path d="M284.33 207.866L142.049 125.719L147.161 122.762L289.449 204.909L284.33 207.866Z" fill="#A0AEC0"/>
<path d="M197.832 175.653L126.691 134.583L131.81 131.626L202.951 172.703L197.832 175.653Z" fill="#A0AEC0"/>
<path d="M60.1585 161.177L24.332 140.491L60.1585 119.804L95.9849 140.491L60.1585 161.177Z" fill="#7B8FDD"/>
<path d="M60.1585 161.177L24.332 140.491H95.9849L60.1585 161.177Z" fill="#6079DA"/>
<path d="M60.04 160.822C59.3172 160.822 58.6206 160.671 58.0884 160.362L26.0732 141.877C25.5081 141.548 25.1992 141.082 25.1992 140.562C25.1992 139.958 25.6263 139.367 26.3689 138.933L57.7927 120.79C59.12 120.021 61.0651 119.948 62.2283 120.619L94.2434 139.104C94.8085 139.432 95.1173 139.899 95.1173 140.418C95.1173 141.022 94.6902 141.614 93.9476 142.048L62.524 160.191C61.8011 160.605 60.9009 160.822 60.04 160.822ZM60.2832 120.829C59.5275 120.829 58.7323 121.013 58.1212 121.361L26.6975 139.505C26.1652 139.813 25.8563 140.194 25.8563 140.556C25.8563 140.911 26.1521 141.154 26.4018 141.298L58.4169 159.783C59.3566 160.329 61.0849 160.25 62.1888 159.613L93.6125 141.469C94.1448 141.16 94.4536 140.779 94.4536 140.418C94.4536 140.063 94.1579 139.82 93.9082 139.675L61.8931 121.19C61.4726 120.947 60.8943 120.829 60.2832 120.829Z" fill="black"/>
<path d="M243.384 231.503L101.104 149.356L106.223 146.398L248.503 228.546L243.384 231.503Z" fill="#A0AEC0"/>
<path d="M228.034 240.367L85.7461 158.22L90.8651 155.263L233.146 237.41L228.034 240.367Z" fill="#A0AEC0"/>
<path d="M141.537 208.162L70.3965 167.085L75.5088 164.135L146.656 205.205L141.537 208.162Z" fill="#A0AEC0"/>
<path d="M3.86236 193.679L-31.9707 172.999L3.85579 152.312L39.6823 172.999L3.86236 193.679Z" fill="#C88BC4"/>
<path d="M3.86236 193.679L-31.9707 172.999H39.6823L3.86236 193.679Z" fill="#D1AAD7"/>
<path d="M3.74313 193.324C3.02029 193.324 2.32374 193.173 1.79148 192.864L-30.2237 174.379C-30.7888 174.051 -31.0977 173.584 -31.0977 173.065C-31.0977 172.46 -30.6705 171.869 -29.928 171.435L1.49577 153.292C2.82315 152.523 4.76825 152.451 5.93136 153.121L37.9465 171.606C38.5117 171.935 38.8205 172.401 38.8205 172.92C38.8205 173.525 38.3934 174.116 37.6508 174.55L6.22706 192.693C5.50423 193.114 4.60397 193.324 3.74313 193.324ZM3.98626 153.338C3.23057 153.338 2.43545 153.522 1.82434 153.87L-29.5994 172.014C-30.1317 172.322 -30.4405 172.704 -30.4405 173.065C-30.4405 173.42 -30.1448 173.663 -29.8951 173.807L2.12003 192.292C3.06628 192.838 4.78795 192.759 5.89192 192.122L37.3157 173.978C37.848 173.669 38.1568 173.288 38.1568 172.927C38.1568 172.572 37.8611 172.329 37.6114 172.184L5.59622 153.699C5.17566 153.456 4.59739 153.338 3.98626 153.338Z" fill="black"/>
<path d="M187.088 264.011L44.8008 181.863L49.9198 178.906L192.207 261.054L187.088 264.011Z" fill="#A0AEC0"/>
<path d="M171.73 272.876L29.4492 190.729L34.5682 187.771L176.849 269.919L171.73 272.876Z" fill="#A0AEC0"/>
<path d="M169.996 85.3774L171.205 85.4168C171.074 86.0148 171.297 86.5011 172.013 86.9151C172.887 87.4211 173.807 87.4342 174.491 87.0399C175.056 86.7179 175.043 86.3697 174.419 85.8045L173.985 85.43C173.025 84.5889 172.933 83.9054 173.939 83.3272C175.082 82.67 176.6 82.7883 177.921 83.5506C178.887 84.1091 179.222 84.7137 179.045 85.384L177.862 85.3117C177.993 84.8451 177.816 84.4049 177.086 83.9843C176.304 83.5309 175.49 83.4586 174.859 83.8266C174.287 84.1551 174.386 84.51 174.99 85.0488L175.424 85.4234C176.41 86.3105 176.41 86.9611 175.424 87.5328C174.235 88.2162 172.625 88.1833 171.192 87.3553C170.147 86.7376 169.832 86.0674 169.996 85.3774Z" fill="#A0AEC0"/>
<path d="M179.801 86.6787L180.655 87.1716L179.873 87.625L179.913 87.6447C180.721 87.4344 181.523 87.5461 182.18 87.9207C183.376 88.6107 183.146 89.5766 181.601 90.4703C180.051 91.364 178.388 91.4954 177.185 90.8055C176.528 90.4309 176.338 89.9643 176.706 89.4978L176.666 89.4781L174.038 90.996L173.184 90.5032L179.801 86.6787ZM180.281 90.1746L181.089 89.7081C181.891 89.2481 181.943 88.6501 181.181 88.2098C180.537 87.8353 179.65 87.7498 179.144 88.0455L177.389 89.0575C176.883 89.3532 177.028 89.8592 177.678 90.2338C178.447 90.674 179.479 90.6412 180.281 90.1746Z" fill="#A0AEC0"/>
<path d="M184.118 94.6826C183.592 94.3804 183.678 94.0452 184.072 93.7429L184.026 93.7167C183.244 93.9467 182.422 93.835 181.739 93.4407C180.747 92.869 180.714 92.2118 181.594 91.7059C182.514 91.1736 183.684 91.2722 185.051 92.0607L185.951 92.5798L186.385 92.3301C187.022 91.9621 187.035 91.5613 186.319 91.1407C185.754 90.8187 185.123 90.7662 184.466 90.8582L184.42 90.2865C185.222 90.155 186.201 90.2405 187.081 90.7465C188.271 91.4299 188.343 92.179 187.311 92.7704L184.795 94.2226L185.327 94.5315L184.598 94.9521L184.118 94.6826ZM184.617 93.3487L185.353 92.9215L184.44 92.3958C183.658 91.9424 183.066 91.8767 182.626 92.133L182.442 92.2381C182.002 92.4944 182.094 92.8361 182.626 93.145C183.303 93.5392 184.138 93.6312 184.617 93.3487Z" fill="#A0AEC0"/>
<path d="M187.902 94.1108C189.433 93.2302 191.181 93.1185 192.548 93.9071C193.487 94.4525 193.619 95.057 193.211 95.609L192.153 95.3988C192.469 95.0373 192.364 94.6496 191.812 94.3276C190.99 93.8545 190.018 93.9399 189.229 94.3934L188.401 94.8731C187.619 95.3265 187.468 95.8916 188.29 96.3647C188.868 96.6999 189.564 96.759 190.32 96.6013L190.557 97.1861C189.532 97.4227 188.467 97.3176 187.554 96.7919C186.193 96.0033 186.377 94.9979 187.902 94.1108Z" fill="#A0AEC0"/>
<path d="M192.732 96.8968C194.244 96.0229 196.071 95.9374 197.398 96.7063C198.732 97.4751 198.476 98.5002 197.142 99.2691L196.78 99.4793L193.416 97.5342L193.225 97.646C192.43 98.1059 192.351 98.7171 193.205 99.2099C193.803 99.5582 194.526 99.6436 195.269 99.5056L195.354 100.097C194.408 100.261 193.297 100.104 192.404 99.5845C191.076 98.8222 191.221 97.7708 192.732 96.8968ZM194.079 97.1531L194.014 97.1925L196.465 98.6054L196.557 98.5528C197.352 98.0928 197.424 97.5211 196.701 97.1071C195.959 96.6734 194.861 96.6997 194.079 97.1531Z" fill="#A0AEC0"/>
<path d="M199.579 103.606C198.988 103.264 199.027 102.883 199.579 102.561L202.72 100.748L201.958 100.307L202.687 99.8868L203.115 100.13C203.437 100.314 203.66 100.307 203.982 100.117L204.856 99.6108L205.631 100.058L204.317 100.82L205.342 101.411L204.613 101.832L203.588 101.241L200.269 103.153L201.216 103.698L200.486 104.119L199.579 103.606Z" fill="#A0AEC0"/>
<path d="M201.926 104.96L206.697 102.207L207.551 102.7L206.637 103.226L206.683 103.252C207.308 103.068 208.175 103.061 208.944 103.502L209.226 103.666L208.372 104.159L207.952 103.916C207.157 103.456 206.388 103.37 205.915 103.646L202.78 105.453L201.926 104.96Z" fill="#A0AEC0"/>
<path d="M209.03 109.067C208.504 108.765 208.59 108.429 208.984 108.127L208.938 108.101C208.156 108.331 207.335 108.219 206.651 107.825C205.659 107.253 205.626 106.596 206.507 106.09C207.427 105.558 208.596 105.656 209.963 106.445L210.863 106.964L211.297 106.714C211.934 106.346 211.948 105.946 211.231 105.525C210.666 105.203 210.035 105.15 209.378 105.242L209.332 104.671C210.134 104.539 211.113 104.625 211.994 105.131C213.183 105.814 213.255 106.563 212.224 107.155L209.707 108.607L210.239 108.916L209.51 109.336L209.03 109.067ZM209.529 107.733L210.265 107.306L209.352 106.78C208.57 106.327 207.979 106.261 207.538 106.517L207.354 106.622C206.914 106.879 207.006 107.22 207.538 107.529C208.209 107.917 209.05 108.009 209.529 107.733Z" fill="#A0AEC0"/>
<path d="M211.736 110.625L214.858 106.918L215.712 107.411L214.207 109.186L213.057 110.428L213.11 110.46L215.265 109.803L218.34 108.942L219.162 109.416L212.729 111.216L211.736 110.625Z" fill="#A0AEC0"/>
<path d="M217.506 111.202C219.017 110.329 220.844 110.243 222.171 111.012C223.505 111.781 223.249 112.806 221.915 113.575L221.554 113.785L218.189 111.84L217.999 111.952C217.203 112.412 217.125 113.023 217.979 113.516C218.577 113.864 219.3 113.949 220.042 113.811L220.128 114.403C219.181 114.567 218.071 114.409 217.177 113.89C215.85 113.128 215.994 112.076 217.506 111.202ZM218.853 111.459L218.787 111.498L221.238 112.911L221.33 112.858C222.125 112.398 222.198 111.827 221.475 111.413C220.732 110.979 219.635 111.005 218.853 111.459Z" fill="#A0AEC0"/>
<path d="M221.673 116.361C221.082 116.02 221.128 115.645 221.653 115.343L227.6 111.913L228.455 112.405L222.363 115.921L223.046 116.315L222.317 116.736L221.673 116.361Z" fill="#A0AEC0"/>
<path d="M164.64 75.4816C164.64 73.1751 161.4 71.3022 157.405 71.3022C153.41 71.3022 150.17 73.1751 150.17 75.4816C150.17 77.5778 152.844 79.306 156.321 79.6083V82.1645C156.321 82.5128 156.807 82.7888 157.405 82.7888C158.003 82.7888 158.489 82.5062 158.489 82.1645V79.6083C161.965 79.306 164.64 77.5778 164.64 75.4816ZM157.398 78.4058C154.599 78.4058 152.332 77.0981 152.332 75.4816C152.332 73.865 154.599 72.5574 157.398 72.5574C160.198 72.5574 162.465 73.865 162.465 75.4816C162.465 77.0981 160.198 78.4058 157.398 78.4058Z" fill="#A0AEC0"/>
<path d="M396.927 166.493C397.979 165.882 398.912 165.16 399.681 164.325C402.585 161.151 401.356 157.228 396.96 154.691L188.106 34.1155C182.455 30.8495 173.288 30.8495 167.636 34.1155L157.398 40.023L386.689 172.408L396.927 166.493Z" fill="#E2E8F0"/>
<path d="M386.69 172.736C386.631 172.736 386.578 172.723 386.525 172.69L157.235 40.312C157.129 40.2529 157.07 40.1412 157.07 40.0229C157.07 39.9046 157.136 39.7929 157.235 39.7338L167.473 33.8262C173.209 30.5143 182.541 30.5143 188.277 33.8262L397.125 154.402C399.648 155.861 401.212 157.793 401.528 159.856C401.784 161.499 401.225 163.122 399.924 164.548C399.155 165.389 398.203 166.138 397.092 166.776L386.854 172.683C386.801 172.723 386.749 172.736 386.69 172.736ZM158.063 40.0229L386.69 172.026L396.764 166.211C397.815 165.6 398.715 164.896 399.438 164.108C400.601 162.84 401.101 161.401 400.877 159.961C400.588 158.102 399.142 156.334 396.796 154.98L187.942 34.3979C182.389 31.1911 173.354 31.1911 167.801 34.3979L158.063 40.0229Z" fill="black"/>
<path d="M181.286 44.7804C183.95 44.7804 186.11 43.5329 186.11 41.9942C186.11 40.4554 183.95 39.208 181.286 39.208C178.622 39.208 176.463 40.4554 176.463 41.9942C176.463 43.5329 178.622 44.7804 181.286 44.7804Z" fill="#6079DA"/>
<path d="M181.285 45.102C179.99 45.102 178.696 44.8194 177.71 44.2477C176.691 43.6629 176.133 42.8612 176.133 41.9938C176.133 41.1264 176.691 40.3247 177.71 39.7398C179.681 38.603 182.895 38.603 184.866 39.7398C185.885 40.3247 186.443 41.1264 186.443 41.9938C186.443 42.8612 185.885 43.6629 184.866 44.2477C183.874 44.8194 182.579 45.102 181.285 45.102ZM181.285 39.5361C180.108 39.5361 178.932 39.7924 178.038 40.3115C177.237 40.7781 176.79 41.3761 176.79 41.9938C176.79 42.6115 177.23 43.2095 178.038 43.676C179.826 44.7077 182.743 44.7077 184.531 43.676C185.333 43.2095 185.779 42.6115 185.779 41.9938C185.779 41.3695 185.339 40.7715 184.531 40.3115C183.637 39.7924 182.461 39.5361 181.285 39.5361Z" fill="black"/>
<path d="M191.523 50.6886C194.186 50.6886 196.346 49.4411 196.346 47.9024C196.346 46.3636 194.186 45.1162 191.523 45.1162C188.859 45.1162 186.699 46.3636 186.699 47.9024C186.699 49.4411 188.859 50.6886 191.523 50.6886Z" fill="#C88BC4"/>
<path d="M191.523 51.016C190.228 51.016 188.934 50.7335 187.948 50.1618C186.93 49.5769 186.371 48.7752 186.371 47.9078C186.371 47.0404 186.93 46.2387 187.948 45.6539C189.92 44.5171 193.133 44.5171 195.104 45.6539C196.123 46.2387 196.681 47.0404 196.681 47.9078C196.681 48.7752 196.123 49.5769 195.104 50.1618C194.112 50.7269 192.817 51.016 191.523 51.016ZM191.523 45.4436C190.347 45.4436 189.17 45.6999 188.277 46.219C187.475 46.6856 187.028 47.2836 187.028 47.9013C187.028 48.5255 187.468 49.1235 188.277 49.5835C190.064 50.6152 192.982 50.6152 194.769 49.5835C195.571 49.1169 196.018 48.519 196.018 47.9013C196.018 47.277 195.577 46.679 194.769 46.219C193.869 45.7065 192.693 45.4436 191.523 45.4436Z" fill="black"/>
<path d="M201.755 56.6027C204.419 56.6027 206.578 55.3553 206.578 53.8165C206.578 52.2777 204.419 51.0303 201.755 51.0303C199.091 51.0303 196.932 52.2777 196.932 53.8165C196.932 55.3553 199.091 56.6027 201.755 56.6027Z" fill="#BBDEF2"/>
<path d="M201.755 56.9238C200.461 56.9238 199.166 56.6412 198.181 56.0695C197.162 55.4847 196.604 54.683 196.604 53.8156C196.604 52.9482 197.162 52.1465 198.181 51.5617C200.152 50.4183 203.365 50.4183 205.337 51.5617C206.355 52.1465 206.914 52.9482 206.914 53.8156C206.914 54.683 206.355 55.4847 205.337 56.0695C204.351 56.6412 203.05 56.9238 201.755 56.9238ZM201.755 51.3579C200.579 51.3579 199.403 51.6142 198.509 52.1333C197.707 52.5999 197.261 53.1979 197.261 53.8156C197.261 54.4333 197.701 55.0313 198.509 55.4978C200.297 56.5295 203.214 56.5295 205.002 55.4978C205.803 55.0313 206.25 54.4333 206.25 53.8156C206.25 53.1913 205.81 52.5933 205.002 52.1333C204.108 51.6142 202.932 51.3579 201.755 51.3579Z" fill="black"/>
</g>
</g>
<defs>
<clipPath id="clip0">
<rect width="262.85" height="182.024" fill="white" transform="translate(8.51367 8.51318)"/>
</clipPath>
</defs>
</svg>
